<?xml version="1.0" encoding="UTF-8"?> <svg xmlns="http://www.w3.org/2000/svg" viewBox="0 4.5 26 9.62"> <defs> <style> .cls-1 { fill: #f0f0f0; mix-blend-mode: multiply; } .cls-2 { isolation: isolate; } </style> </defs> <g class="cls-2"> <g id="_Слой_2" data-name="Слой 2"> <g id="Layer_1" data-name="Layer 1"> <g> <path class="cls-1" d="m5.6,12.17c1.17.09,2.43-.9,3.74-2.93,1.93-3,3.58-4.51,5.05-4.61,1.39-.09,2.39,1.08,3.27,2.12.72.85,1.41,1.66,2.16,1.55.84-.12,1.79-1.41,2.89-3.94,1.07-2.44,2.17-3.9,3.3-4.35v.27c-1.03.47-2.06,1.87-3.07,4.18-1.16,2.65-2.13,3.94-3.08,4.08-.88.13-1.61-.73-2.38-1.63-.88-1.04-1.8-2.12-3.06-2.03-1.38.09-2.97,1.56-4.86,4.49-1.32,2.05-2.56,3.05-3.79,3.05-.06,0-.12,0-.17,0-2.27-.18-3.96-3.72-5.58-7.35v-.62c1.58,3.56,3.37,7.54,5.6,7.71Z"></path> <path class="cls-1" d="m5.59,12.14c1.17.09,2.43-.89,3.74-2.92,1.93-2.99,3.58-4.49,5.05-4.59,1.39-.09,2.39,1.08,3.27,2.11.72.85,1.41,1.66,2.16,1.54.84-.12,1.79-1.41,2.89-3.92C23.76,1.92,24.87.47,26,.02v.26c-1.03.46-2.07,1.86-3.08,4.17-1.15,2.64-2.13,3.93-3.08,4.07-.88.13-1.61-.72-2.38-1.63-.88-1.03-1.79-2.1-3.06-2.02-1.38.09-2.97,1.56-4.86,4.48-1.32,2.04-2.56,3.04-3.79,3.04-.06,0-.12,0-.18,0-2.26-.18-3.96-3.7-5.57-7.31v-.61c1.58,3.54,3.37,7.5,5.59,7.67Z"></path> <path class="cls-1" d="m5.58,12.1c1.17.09,2.43-.89,3.74-2.91,1.93-2.98,3.58-4.47,5.05-4.57,1.39-.09,2.39,1.07,3.27,2.1.72.85,1.41,1.64,2.16,1.54.84-.12,1.79-1.4,2.89-3.91C23.76,1.92,24.87.48,26,.03v.26c-1.04.46-2.07,1.85-3.08,4.16-1.15,2.62-2.13,3.91-3.08,4.05-.89.13-1.61-.72-2.38-1.62-.88-1.03-1.79-2.1-3.06-2.01-1.38.09-2.97,1.55-4.86,4.46-1.32,2.04-2.56,3.03-3.79,3.03-.06,0-.12,0-.18,0-2.26-.18-3.95-3.68-5.57-7.27v-.6c1.58,3.53,3.36,7.45,5.58,7.62Z"></path> <path class="cls-1" d="m5.58,12.07c1.19.09,2.41-.86,3.74-2.9,1.93-2.96,3.58-4.45,5.05-4.55,1.39-.09,2.39,1.07,3.27,2.09.73.84,1.41,1.64,2.16,1.53.84-.12,1.79-1.4,2.89-3.89C23.76,1.93,24.87.49,26,.05v.26c-1.04.46-2.07,1.84-3.09,4.14-1.15,2.61-2.13,3.89-3.08,4.03-.88.13-1.61-.72-2.38-1.61-.88-1.03-1.8-2.09-3.07-2-1.38.09-2.97,1.54-4.86,4.44-1.32,2.03-2.56,3.01-3.79,3.01-.06,0-.12,0-.18,0-2.26-.18-3.95-3.66-5.56-7.23v-.6c1.58,3.51,3.36,7.4,5.58,7.58Z"></path> <path class="cls-1" d="m5.57,12.04c1.19.1,2.41-.85,3.75-2.89,1.93-2.95,3.58-4.43,5.04-4.53,1.39-.09,2.39,1.06,3.27,2.08.73.84,1.41,1.64,2.16,1.52.84-.12,1.79-1.39,2.89-3.87,1.07-2.41,2.18-3.85,3.32-4.29v.26c-1.04.45-2.08,1.83-3.1,4.13-1.15,2.6-2.13,3.88-3.08,4.02-.88.13-1.61-.71-2.38-1.61-.88-1.02-1.79-2.08-3.07-2-1.38.09-2.97,1.54-4.86,4.42-1.32,2.02-2.56,3-3.79,3-.06,0-.12,0-.18,0-2.26-.18-3.95-3.64-5.55-7.19v-.59c1.57,3.49,3.36,7.36,5.57,7.53Z"></path> <path class="cls-1" d="m5.56,12c1.19.09,2.42-.85,3.75-2.87,1.93-2.94,3.58-4.41,5.04-4.51,1.39-.09,2.39,1.06,3.27,2.07.73.84,1.41,1.63,2.17,1.52.84-.13,1.79-1.39,2.89-3.86,1.07-2.41,2.19-3.83,3.32-4.27v.26c-1.04.45-2.08,1.82-3.1,4.11-1.15,2.59-2.13,3.86-3.07,4-.88.13-1.61-.71-2.38-1.6-.88-1.02-1.8-2.07-3.07-1.99-1.38.09-2.97,1.53-4.86,4.4-1.32,2.01-2.56,2.99-3.79,2.99-.06,0-.12,0-.18,0-2.25-.18-3.94-3.61-5.55-7.14v-.58c1.57,3.47,3.35,7.31,5.56,7.49Z"></path> <path class="cls-1" d="m5.56,11.97c1.19.1,2.42-.84,3.75-2.86,1.93-2.93,3.58-4.39,5.04-4.49,1.39-.09,2.39,1.05,3.27,2.06.73.84,1.42,1.62,2.17,1.51.84-.13,1.79-1.38,2.89-3.84,1.07-2.4,2.19-3.83,3.33-4.26v.26c-1.04.44-2.09,1.81-3.11,4.1-1.15,2.58-2.13,3.84-3.07,3.98-.88.13-1.61-.71-2.38-1.59-.88-1.01-1.8-2.06-3.07-1.98-1.38.09-2.97,1.53-4.86,4.38-1.32,2-2.56,2.98-3.79,2.98-.06,0-.12,0-.18,0-2.25-.18-3.94-3.59-5.54-7.1v-.58c1.57,3.45,3.35,7.27,5.56,7.44Z"></path> <path class="cls-1" d="m5.55,11.94c1.19.09,2.42-.84,3.75-2.85,1.93-2.91,3.58-4.38,5.04-4.47,1.39-.09,2.39,1.05,3.27,2.05.73.83,1.41,1.62,2.17,1.5.84-.13,1.79-1.38,2.89-3.83,1.08-2.39,2.19-3.81,3.33-4.24v.25c-1.05.44-2.09,1.8-3.12,4.08-1.15,2.56-2.13,3.82-3.07,3.96-.88.13-1.61-.7-2.38-1.58-.88-1.01-1.79-2.06-3.07-1.97-1.38.09-2.97,1.52-4.86,4.37-1.32,1.99-2.56,2.96-3.79,2.96-.06,0-.12,0-.18,0-2.25-.18-3.93-3.57-5.53-7.06v-.57c1.57,3.43,3.34,7.22,5.55,7.4Z"></path> <path class="cls-1" d="m5.54,11.91c1.19.09,2.42-.84,3.75-2.84,1.93-2.9,3.58-4.35,5.04-4.45,1.39-.09,2.39,1.04,3.27,2.04.73.83,1.41,1.61,2.17,1.5.84-.13,1.79-1.37,2.89-3.81,1.08-2.39,2.2-3.8,3.34-4.22v.25c-1.05.43-2.1,1.79-3.12,4.07-1.15,2.55-2.13,3.81-3.07,3.95-.88.13-1.61-.7-2.38-1.58-.88-1.01-1.8-2.05-3.08-1.96-1.38.09-2.97,1.51-4.86,4.35-1.32,1.98-2.56,2.95-3.79,2.95-.06,0-.12,0-.18,0-2.24-.18-3.93-3.55-5.53-7.02v-.56c1.57,3.41,3.34,7.18,5.54,7.35Z"></path> <path class="cls-1" d="m5.54,11.87c1.19.09,2.42-.83,3.76-2.83,1.93-2.89,3.58-4.34,5.04-4.43,1.39-.1,2.39,1.04,3.27,2.04.73.83,1.42,1.6,2.17,1.49.84-.13,1.79-1.37,2.89-3.79,1.08-2.38,2.2-3.79,3.34-4.21v.25c-1.05.43-2.1,1.78-3.13,4.05-1.15,2.54-2.12,3.79-3.07,3.93-.88.13-1.61-.69-2.38-1.57-.88-1-1.8-2.05-3.08-1.96-1.38.09-2.97,1.51-4.86,4.33-1.32,1.97-2.56,2.94-3.78,2.94-.06,0-.12,0-.18,0-2.24-.18-3.92-3.53-5.52-6.98v-.56c1.56,3.4,3.34,7.13,5.54,7.31Z"></path> <path class="cls-1" d="m5.53,11.84c1.19.1,2.42-.83,3.76-2.81,1.93-2.87,3.57-4.32,5.03-4.41,1.4-.09,2.39,1.03,3.27,2.03.73.82,1.42,1.6,2.17,1.49.84-.13,1.79-1.36,2.89-3.78,1.08-2.37,2.2-3.77,3.35-4.19v.25c-1.05.42-2.1,1.77-3.13,4.04-1.15,2.53-2.12,3.77-3.07,3.91-.88.13-1.61-.69-2.38-1.56-.88-1-1.8-2.03-3.08-1.95-1.38.09-2.97,1.5-4.86,4.31-1.32,1.96-2.56,2.92-3.78,2.92-.06,0-.12,0-.19,0-2.24-.18-3.92-3.51-5.51-6.94v-.55c1.56,3.38,3.33,7.09,5.53,7.26Z"></path> <path class="cls-1" d="m5.53,11.81c1.2.1,2.42-.82,3.76-2.8,1.93-2.86,3.57-4.3,5.03-4.39,1.39-.09,2.39,1.03,3.27,2.02.73.82,1.42,1.6,2.18,1.48.84-.13,1.79-1.36,2.89-3.76,1.08-2.37,2.21-3.77,3.35-4.18v.25c-1.06.42-2.11,1.77-3.14,4.02-1.15,2.52-2.12,3.75-3.06,3.89-.88.13-1.61-.69-2.38-1.56-.89-1-1.81-2.02-3.08-1.94-1.38.09-2.97,1.5-4.86,4.29-1.32,1.96-2.56,2.91-3.78,2.91-.06,0-.12,0-.19,0-2.23-.18-3.91-3.49-5.51-6.9v-.54c1.56,3.36,3.33,7.05,5.53,7.22Z"></path> <path class="cls-1" d="m5.52,11.77c1.19.1,2.43-.82,3.76-2.79,1.93-2.85,3.57-4.28,5.03-4.38,1.39-.1,2.39,1.02,3.27,2.01.73.82,1.42,1.59,2.18,1.47.84-.13,1.79-1.35,2.89-3.75,1.08-2.36,2.21-3.75,3.36-4.16v.25c-1.06.42-2.11,1.75-3.15,4.01-1.15,2.5-2.12,3.73-3.06,3.88-.88.13-1.61-.68-2.38-1.55-.89-.99-1.8-2.01-3.08-1.93-1.38.09-2.97,1.49-4.86,4.28-1.32,1.95-2.56,2.9-3.78,2.9-.06,0-.12,0-.19,0-2.23-.18-3.91-3.47-5.5-6.87v-.54c1.56,3.34,3.33,7,5.52,7.17Z"></path> <path class="cls-1" d="m5.51,11.74c1.2.1,2.43-.81,3.76-2.78,1.93-2.83,3.57-4.26,5.03-4.36,1.39-.09,2.39,1.02,3.27,2,.73.81,1.42,1.58,2.18,1.47.84-.13,1.79-1.35,2.89-3.73,1.08-2.35,2.21-3.74,3.36-4.14v.24c-1.06.41-2.12,1.75-3.15,4-1.15,2.49-2.12,3.72-3.06,3.86-.88.13-1.61-.68-2.38-1.54-.89-.99-1.8-2.01-3.08-1.92-1.38.09-2.97,1.49-4.86,4.26-1.32,1.94-2.56,2.89-3.78,2.89-.06,0-.13,0-.19,0-2.23-.18-3.9-3.45-5.49-6.83v-.53c1.56,3.32,3.32,6.96,5.51,7.13Z"></path> <path class="cls-1" d="m5.51,11.71c1.2.1,2.43-.81,3.77-2.77,1.93-2.82,3.57-4.24,5.03-4.34,1.39-.09,2.39,1.01,3.27,1.99.73.81,1.42,1.58,2.18,1.46.84-.13,1.79-1.34,2.89-3.71,1.09-2.35,2.21-3.72,3.36-4.12v.24c-1.06.41-2.12,1.74-3.16,3.98-1.15,2.48-2.12,3.7-3.06,3.84-.88.13-1.61-.68-2.38-1.53-.89-.98-1.8-2-3.09-1.92-1.38.09-2.97,1.48-4.86,4.24-1.32,1.93-2.56,2.87-3.78,2.87-.06,0-.13,0-.19,0-2.22-.18-3.9-3.43-5.49-6.79v-.52c1.56,3.3,3.32,6.91,5.51,7.09Z"></path> <path class="cls-1" d="m5.5,11.68c1.2.09,2.43-.81,3.77-2.76,1.92-2.81,3.57-4.22,5.02-4.32,1.39-.09,2.39,1.01,3.27,1.98.73.81,1.42,1.57,2.18,1.46.85-.13,1.79-1.34,2.89-3.7,1.09-2.34,2.22-3.72,3.37-4.11v.23c-1.07.4-2.13,1.73-3.17,3.97-1.15,2.47-2.12,3.68-3.06,3.82-.88.13-1.61-.67-2.38-1.53-.89-.98-1.8-2-3.09-1.91-1.38.09-2.97,1.47-4.86,4.22-1.32,1.92-2.56,2.86-3.78,2.86-.06,0-.13,0-.19,0-2.22-.18-3.89-3.4-5.48-6.75v-.52c1.55,3.29,3.31,6.87,5.5,7.04Z"></path> <path class="cls-1" d="m5.49,11.64c1.2.1,2.43-.8,3.77-2.75,1.92-2.79,3.57-4.2,5.02-4.3,1.39-.09,2.39,1,3.27,1.97.73.81,1.43,1.57,2.19,1.45.85-.13,1.79-1.33,2.89-3.68,1.09-2.33,2.22-3.7,3.37-4.09v.23c-1.07.4-2.13,1.72-3.17,3.95-1.15,2.46-2.12,3.66-3.05,3.81-.88.13-1.61-.67-2.38-1.52-.89-.98-1.8-1.98-3.09-1.9-1.38.09-2.97,1.47-4.86,4.2-1.32,1.91-2.56,2.85-3.78,2.85-.06,0-.13,0-.19,0-2.22-.18-3.89-3.38-5.48-6.71v-.51c1.55,3.27,3.31,6.82,5.49,7Z"></path> <path class="cls-1" d="m5.49,11.61c1.2.1,2.43-.8,3.77-2.73,1.92-2.78,3.57-4.18,5.02-4.28,1.39-.1,2.39,1,3.27,1.96.73.8,1.42,1.56,2.19,1.44.84-.13,1.79-1.33,2.89-3.67,1.09-2.32,2.22-3.69,3.38-4.08v.23c-1.07.39-2.13,1.71-3.18,3.94-1.15,2.44-2.12,3.65-3.05,3.79-.88.13-1.61-.67-2.38-1.51-.89-.97-1.8-1.98-3.09-1.89-1.38.09-2.97,1.46-4.86,4.18-1.32,1.9-2.56,2.83-3.78,2.83-.06,0-.13,0-.19,0-2.21-.18-3.88-3.36-5.47-6.67v-.51c1.55,3.25,3.31,6.78,5.49,6.96Z"></path> <path class="cls-1" d="m5.48,11.58c1.2.1,2.44-.79,3.78-2.72,1.92-2.77,3.57-4.16,5.02-4.26,1.39-.09,2.39.99,3.27,1.95.73.8,1.43,1.55,2.19,1.44.84-.13,1.79-1.32,2.89-3.65,1.09-2.32,2.23-3.67,3.38-4.06v.23c-1.07.39-2.14,1.7-3.19,3.92-1.15,2.43-2.12,3.63-3.05,3.77-.88.13-1.61-.66-2.38-1.5-.89-.97-1.81-1.97-3.09-1.88-1.38.09-2.97,1.46-4.86,4.17-1.32,1.9-2.55,2.82-3.78,2.82-.07,0-.13,0-.2,0-2.21-.18-3.88-3.34-5.46-6.63v-.5c1.55,3.23,3.3,6.74,5.48,6.91Z"></path> <path class="cls-1" d="m5.47,11.54c1.2.1,2.44-.79,3.78-2.71,1.92-2.75,3.57-4.14,5.02-4.24,1.39-.09,2.39.99,3.27,1.94.73.8,1.42,1.55,2.19,1.43.84-.13,1.79-1.32,2.89-3.63,1.09-2.31,2.23-3.66,3.39-4.04v.23c-1.07.39-2.14,1.69-3.19,3.91-1.15,2.42-2.11,3.61-3.05,3.75-.88.14-1.61-.66-2.38-1.5-.89-.96-1.81-1.96-3.09-1.88-1.38.09-2.97,1.45-4.86,4.15-1.32,1.89-2.55,2.81-3.78,2.81-.07,0-.13,0-.2,0-2.21-.18-3.87-3.32-5.46-6.59v-.49c1.55,3.21,3.3,6.69,5.47,6.87Z"></path> <path class="cls-1" d="m5.47,11.51c1.2.09,2.44-.79,3.78-2.7,1.92-2.74,3.56-4.12,5.02-4.22,1.39-.1,2.39.98,3.27,1.94.73.79,1.43,1.54,2.2,1.42.85-.13,1.79-1.31,2.89-3.62,1.1-2.3,2.23-3.65,3.39-4.03v.22c-1.08.38-2.15,1.69-3.2,3.89-1.15,2.41-2.11,3.6-3.05,3.74-.88.14-1.61-.65-2.38-1.49-.89-.96-1.81-1.95-3.1-1.87-1.38.09-2.97,1.44-4.86,4.13-1.32,1.88-2.55,2.79-3.77,2.79-.07,0-.13,0-.2,0-2.2-.18-3.87-3.3-5.45-6.55v-.49c1.55,3.19,3.3,6.65,5.47,6.82Z"></path> <path class="cls-1" d="m5.46,11.48c1.21.1,2.44-.78,3.78-2.69,1.92-2.73,3.56-4.1,5.01-4.2,1.39-.1,2.39.98,3.27,1.93.73.79,1.43,1.54,2.2,1.42.84-.13,1.79-1.31,2.89-3.6,1.1-2.3,2.24-3.64,3.39-4.01v.22c-1.08.38-2.15,1.67-3.21,3.88-1.14,2.4-2.11,3.58-3.04,3.72-.88.14-1.61-.65-2.38-1.48-.89-.96-1.81-1.94-3.1-1.86-1.38.09-2.97,1.44-4.86,4.11-1.32,1.87-2.55,2.78-3.77,2.78-.07,0-.13,0-.2,0-2.2-.18-3.86-3.28-5.44-6.51v-.48c1.54,3.17,3.29,6.61,5.46,6.78Z"></path> <path class="cls-1" d="m5.45,11.45c1.2.1,2.44-.78,3.78-2.67,1.92-2.72,3.56-4.08,5.01-4.18,1.39-.09,2.39.97,3.27,1.92.77.82,1.43,1.53,2.2,1.41.84-.13,1.79-1.3,2.88-3.59,1.1-2.29,2.24-3.62,3.4-3.99v.22c-1.08.37-2.16,1.67-3.21,3.86-1.14,2.38-2.11,3.56-3.04,3.7-.88.14-1.61-.65-2.38-1.48-.89-.95-1.81-1.94-3.1-1.85-1.39.09-2.97,1.43-4.86,4.09-1.32,1.86-2.55,2.77-3.77,2.77-.07,0-.13,0-.2,0-2.2-.18-3.86-3.26-5.44-6.47v-.48c1.54,3.16,3.29,6.56,5.45,6.74Z"></path> <path class="cls-1" d="m5.45,11.41c1.21.1,2.44-.77,3.79-2.66,1.92-2.7,3.56-4.06,5.01-4.16,1.39-.09,2.39.97,3.27,1.91.77.82,1.43,1.53,2.2,1.41.85-.13,1.79-1.3,2.88-3.57,1.1-2.28,2.24-3.61,3.4-3.98v.22c-1.08.37-2.16,1.66-3.22,3.85-1.14,2.37-2.11,3.54-3.04,3.69-.88.14-1.61-.64-2.38-1.47-.89-.95-1.81-1.93-3.1-1.84-1.38.09-2.97,1.43-4.86,4.08-1.32,1.85-2.55,2.76-3.77,2.76-.07,0-.13,0-.2,0-2.19-.18-3.85-3.24-5.43-6.43v-.47c1.54,3.14,3.29,6.52,5.45,6.7Z"></path> <path class="cls-1" d="m5.44,11.38c1.21.1,2.44-.77,3.79-2.65,1.92-2.69,3.56-4.04,5.01-4.14,1.39-.09,2.39.96,3.27,1.9.77.81,1.43,1.52,2.2,1.4.85-.13,1.79-1.29,2.88-3.55,1.1-2.27,2.25-3.6,3.41-3.96v.22c-1.09.37-2.17,1.65-3.22,3.83-1.14,2.36-2.11,3.52-3.04,3.67-.88.13-1.61-.64-2.38-1.46-.89-.95-1.81-1.92-3.1-1.83-1.38.09-2.97,1.42-4.86,4.06-1.32,1.84-2.55,2.74-3.77,2.74-.07,0-.13,0-.2,0-2.19-.18-3.85-3.22-5.42-6.39v-.46c1.54,3.12,3.28,6.48,5.44,6.65Z"></path> <path class="cls-1" d="m5.43,11.35c1.21.1,2.45-.76,3.79-2.64,1.92-2.68,3.56-4.02,5.01-4.12,1.39-.09,2.39.96,3.27,1.89.77.81,1.43,1.51,2.21,1.39.85-.13,1.79-1.29,2.88-3.54,1.1-2.27,2.25-3.59,3.41-3.94v.22c-1.09.36-2.17,1.64-3.23,3.82-1.14,2.35-2.11,3.51-3.04,3.65-.88.13-1.61-.64-2.38-1.45-.89-.94-1.81-1.91-3.11-1.83-1.39.09-2.97,1.41-4.86,4.04-1.32,1.84-2.55,2.73-3.77,2.73-.07,0-.14,0-.2,0-2.19-.18-3.84-3.2-5.42-6.36v-.46c1.54,3.1,3.28,6.43,5.43,6.61Z"></path> <path class="cls-1" d="m5.43,11.32c1.21.1,2.45-.76,3.79-2.63,1.92-2.66,3.56-4.01,5.01-4.1,1.39-.1,2.39.96,3.27,1.88.77.81,1.43,1.51,2.21,1.39.86-.13,1.77-1.25,2.88-3.52,1.1-2.26,2.25-3.57,3.42-3.92v.21c-1.09.36-2.17,1.63-3.24,3.8-1.14,2.34-2.11,3.49-3.03,3.63-.88.13-1.61-.63-2.39-1.45-.89-.94-1.81-1.9-3.11-1.82-1.39.09-2.97,1.41-4.86,4.02-1.32,1.83-2.55,2.72-3.77,2.72-.07,0-.14,0-.21,0-2.18-.18-3.84-3.18-5.41-6.32v-.45c1.54,3.08,3.27,6.39,5.43,6.57Z"></path> <path class="cls-1" d="m5.42,11.28c1.21.1,2.45-.76,3.8-2.61,1.92-2.65,3.56-3.99,5-4.08,1.39-.09,2.39.95,3.27,1.87.77.81,1.43,1.5,2.21,1.38.86-.13,1.77-1.25,2.88-3.51,1.11-2.25,2.25-3.56,3.42-3.91v.21c-1.09.35-2.18,1.62-3.24,3.78-1.14,2.32-2.1,3.47-3.03,3.62-.88.14-1.61-.63-2.38-1.44-.89-.93-1.81-1.9-3.11-1.81-1.39.09-2.97,1.4-4.86,4-1.32,1.82-2.55,2.71-3.77,2.71-.07,0-.14,0-.2,0-2.18-.18-3.83-3.16-5.4-6.28v-.45c1.53,3.07,3.27,6.35,5.42,6.53Z"></path> <path class="cls-1" d="m5.41,11.25c1.21.1,2.45-.75,3.8-2.6,1.92-2.64,3.55-3.97,5-4.06,1.39-.1,2.39.95,3.27,1.86.77.8,1.44,1.49,2.21,1.37.86-.13,1.77-1.24,2.88-3.49,1.11-2.25,2.26-3.55,3.43-3.89v.21c-1.09.35-2.18,1.61-3.25,3.77-1.14,2.31-2.1,3.46-3.03,3.6-.88.13-1.61-.63-2.38-1.43-.89-.93-1.82-1.89-3.11-1.8-1.39.09-2.97,1.4-4.86,3.98-1.32,1.81-2.55,2.69-3.77,2.69-.07,0-.14,0-.21,0-2.18-.18-3.83-3.14-5.4-6.24v-.44c1.53,3.05,3.27,6.31,5.41,6.48Z"></path> <path class="cls-1" d="m5.41,11.22c1.21.1,2.45-.75,3.8-2.59,1.92-2.62,3.55-3.95,5-4.05,1.39-.09,2.39.94,3.27,1.85.77.8,1.44,1.49,2.21,1.37.86-.13,1.77-1.24,2.88-3.47,1.11-2.24,2.26-3.54,3.43-3.88v.21c-1.1.34-2.19,1.6-3.25,3.76-1.14,2.3-2.1,3.44-3.03,3.58-.88.14-1.61-.62-2.39-1.43-.89-.93-1.82-1.88-3.11-1.79-1.39.09-2.97,1.39-4.86,3.97-1.32,1.8-2.55,2.68-3.77,2.68-.07,0-.14,0-.21,0-2.17-.18-3.83-3.12-5.39-6.2v-.43c1.53,3.03,3.26,6.26,5.41,6.44Z"></path> <path class="cls-1" d="m5.4,11.18c1.21.1,2.45-.74,3.8-2.58,1.92-2.61,3.55-3.93,5-4.03,1.39-.09,2.39.94,3.27,1.84.77.8,1.43,1.48,2.22,1.36.86-.13,1.77-1.23,2.88-3.46,1.11-2.23,2.26-3.52,3.43-3.86v.2c-1.1.34-2.19,1.59-3.26,3.74-1.14,2.29-2.1,3.42-3.03,3.56-.88.14-1.61-.62-2.39-1.42-.89-.92-1.81-1.87-3.12-1.79-1.39.09-2.97,1.39-4.86,3.95-1.32,1.79-2.55,2.67-3.76,2.67-.07,0-.14,0-.21,0-2.17-.18-3.82-3.1-5.38-6.16v-.43c1.53,3.01,3.26,6.22,5.4,6.4Z"></path> <path class="cls-1" d="m5.39,11.15c1.21.1,2.46-.74,3.8-2.57,1.92-2.6,3.55-3.91,5-4.01,1.39-.1,2.39.93,3.27,1.84.77.79,1.44,1.48,2.22,1.36.86-.13,1.77-1.23,2.88-3.44,1.11-2.22,2.27-3.51,3.44-3.84v.2c-1.1.34-2.2,1.59-3.27,3.73-1.14,2.28-2.1,3.4-3.02,3.55-.88.14-1.61-.62-2.39-1.41-.89-.92-1.81-1.87-3.12-1.78-1.39.09-2.97,1.38-4.86,3.93-1.32,1.78-2.55,2.65-3.76,2.65-.07,0-.14,0-.21,0-2.17-.18-3.81-3.08-5.38-6.12v-.42c1.53,2.99,3.25,6.18,5.39,6.36Z"></path> <path class="cls-1" d="m5.39,11.12c1.21.1,2.46-.74,3.81-2.55,1.92-2.58,3.55-3.89,5-3.99,1.39-.1,2.39.93,3.27,1.83.77.79,1.44,1.47,2.22,1.35.86-.13,1.77-1.22,2.88-3.43,1.11-2.22,2.27-3.5,3.44-3.82v.2c-1.1.33-2.2,1.57-3.27,3.71-1.14,2.26-2.1,3.39-3.02,3.53-.88.14-1.61-.61-2.39-1.4-.89-.91-1.82-1.86-3.12-1.77-1.39.09-2.97,1.37-4.85,3.91-1.31,1.77-2.55,2.64-3.76,2.64-.07,0-.14,0-.21,0-2.16-.18-3.81-3.06-5.37-6.09v-.42c1.52,2.97,3.25,6.14,5.39,6.31Z"></path> <path class="cls-1" d="m5.38,11.09c1.21.1,2.46-.73,3.81-2.54,1.92-2.57,3.55-3.87,4.99-3.97,1.38-.09,2.39.92,3.27,1.82.77.79,1.44,1.46,2.22,1.34.86-.13,1.77-1.22,2.88-3.41,1.12-2.21,2.27-3.48,3.45-3.81v.2c-1.11.33-2.21,1.56-3.28,3.69-1.14,2.25-2.1,3.37-3.02,3.51-.88.14-1.61-.61-2.39-1.4-.89-.91-1.82-1.85-3.12-1.76-1.39.09-2.97,1.37-4.86,3.89-1.31,1.76-2.55,2.63-3.76,2.63-.07,0-.14,0-.21,0-2.16-.18-3.81-3.04-5.36-6.05v-.41c1.52,2.96,3.25,6.1,5.38,6.27Z"></path> <path class="cls-1" d="m5.37,11.05c1.21.1,2.46-.73,3.81-2.53,1.91-2.56,3.55-3.85,4.99-3.95,1.39-.09,2.39.92,3.27,1.81.77.78,1.44,1.46,2.23,1.34.86-.13,1.77-1.21,2.88-3.39,1.12-2.2,2.27-3.47,3.45-3.79v.2c-1.11.33-2.21,1.56-3.29,3.68-1.14,2.24-2.1,3.35-3.02,3.49-.88.14-1.61-.6-2.39-1.39-.89-.91-1.82-1.84-3.12-1.75-1.39.09-2.97,1.36-4.85,3.87-1.31,1.76-2.55,2.61-3.76,2.61-.07,0-.14,0-.21,0-2.16-.18-3.8-3.02-5.36-6.01v-.41c1.52,2.94,3.24,6.05,5.37,6.23Z"></path> <path class="cls-1" d="m5.37,11.02c1.22.1,2.46-.72,3.81-2.52,1.91-2.55,3.55-3.83,4.99-3.93,1.39-.09,2.39.91,3.27,1.8.77.78,1.44,1.45,2.23,1.33.86-.13,1.77-1.21,2.88-3.38,1.12-2.19,2.28-3.45,3.46-3.77v.19c-1.11.32-2.21,1.55-3.29,3.66-1.14,2.23-2.09,3.33-3.02,3.48-.88.13-1.61-.6-2.39-1.38-.9-.9-1.82-1.83-3.12-1.75-1.39.1-2.98,1.36-4.86,3.86-1.31,1.75-2.55,2.6-3.76,2.6-.07,0-.14,0-.22,0-2.15-.18-3.8-3-5.35-5.97v-.4c1.52,2.92,3.24,6.01,5.37,6.19Z"></path> <path class="cls-1" d="m5.36,10.99c1.21.1,2.46-.72,3.82-2.51,1.91-2.53,3.55-3.81,4.99-3.91,1.39-.09,2.39.91,3.27,1.79.77.78,1.44,1.45,2.23,1.32.86-.13,1.77-1.2,2.88-3.36,1.12-2.18,2.28-3.44,3.46-3.75v.19c-1.11.32-2.22,1.54-3.3,3.65-1.13,2.22-2.09,3.32-3.01,3.46-.88.14-1.61-.6-2.39-1.38-.9-.9-1.82-1.83-3.13-1.74-1.39.09-2.97,1.35-4.85,3.84-1.31,1.74-2.55,2.59-3.76,2.59-.07,0-.15,0-.22,0-2.15-.18-3.79-2.98-5.34-5.94v-.4c1.52,2.9,3.24,5.97,5.36,6.15Z"></path> <path class="cls-1" d="m5.35,10.95c1.22.1,2.47-.71,3.82-2.5,1.91-2.52,3.54-3.79,4.99-3.89,1.39-.1,2.39.9,3.27,1.78.78.77,1.44,1.44,2.23,1.32.86-.13,1.77-1.2,2.88-3.35,1.12-2.18,2.28-3.43,3.47-3.74v.19c-1.11.31-2.22,1.53-3.3,3.63-1.13,2.2-2.09,3.3-3.01,3.44-.88.14-1.61-.59-2.39-1.37-.9-.89-1.82-1.82-3.13-1.73-1.39.1-2.98,1.34-4.85,3.82-1.31,1.73-2.55,2.58-3.76,2.58-.07,0-.15,0-.22,0-2.15-.18-3.79-2.96-5.34-5.9v-.39c1.52,2.88,3.23,5.93,5.35,6.11Z"></path> <path class="cls-1" d="m5.34,10.92c1.21.11,2.47-.71,3.82-2.48,1.91-2.51,3.54-3.77,4.98-3.87,1.39-.1,2.39.9,3.27,1.77.78.77,1.44,1.43,2.23,1.31.86-.13,1.77-1.19,2.88-3.33,1.12-2.17,2.29-3.42,3.47-3.72v.18c-1.12.31-2.23,1.52-3.31,3.62-1.13,2.19-2.09,3.28-3.01,3.42-.88.14-1.61-.59-2.39-1.36-.9-.89-1.82-1.81-3.13-1.72-1.39.09-2.97,1.34-4.85,3.8-1.31,1.72-2.55,2.56-3.76,2.56-.07,0-.15,0-.22,0-2.14-.18-3.78-2.94-5.33-5.86v-.38c1.51,2.87,3.23,5.89,5.34,6.06Z"></path> <path class="cls-1" d="m5.34,10.89c1.22.11,2.47-.71,3.82-2.47,1.91-2.49,3.54-3.75,4.98-3.85,1.39-.1,2.39.89,3.27,1.76.78.77,1.45,1.43,2.24,1.31.86-.13,1.77-1.19,2.88-3.31,1.12-2.16,2.29-3.4,3.47-3.7v.18c-1.12.31-2.23,1.51-3.32,3.6-1.13,2.18-2.09,3.26-3.01,3.41-.88.14-1.61-.59-2.39-1.35-.85-.84-1.82-1.8-3.13-1.71-1.39.1-2.97,1.33-4.85,3.78-1.31,1.71-2.54,2.55-3.76,2.55-.07,0-.15,0-.22,0-2.14-.18-3.78-2.93-5.32-5.82v-.38c1.51,2.85,3.22,5.85,5.34,6.02Z"></path> <path class="cls-1" d="m5.33,10.85c1.22.1,2.47-.7,3.83-2.46,1.91-2.48,3.54-3.73,4.98-3.83,1.39-.09,2.39.89,3.27,1.75.78.76,1.45,1.42,2.24,1.3.86-.14,1.77-1.18,2.88-3.3,1.13-2.15,2.29-3.39,3.48-3.69v.18c-1.12.3-2.23,1.5-3.32,3.59-1.13,2.17-2.09,3.25-3.01,3.39-.88.14-1.61-.58-2.39-1.35-.85-.84-1.82-1.79-3.13-1.7-1.39.09-2.98,1.33-4.85,3.76-1.31,1.7-2.54,2.54-3.76,2.54-.07,0-.15,0-.22,0-2.14-.18-3.77-2.91-5.32-5.79v-.37c1.51,2.83,3.22,5.8,5.33,5.98Z"></path> <path class="cls-1" d="m5.32,10.82c1.22.1,2.47-.7,3.83-2.45,1.91-2.47,3.54-3.71,4.98-3.81,1.38-.09,2.39.88,3.27,1.75.78.76,1.45,1.42,2.24,1.29.86-.14,1.77-1.18,2.88-3.28,1.13-2.15,2.3-3.37,3.48-3.66v.18c-1.12.3-2.24,1.49-3.33,3.57-1.13,2.16-2.09,3.23-3,3.37-.88.14-1.61-.58-2.39-1.34-.86-.84-1.83-1.79-3.14-1.7-1.39.1-2.97,1.32-4.85,3.75-1.31,1.7-2.54,2.52-3.75,2.52-.08,0-.15,0-.22,0-2.13-.18-3.77-2.89-5.31-5.75v-.37c1.51,2.81,3.22,5.76,5.32,5.94Z"></path> <path class="cls-1" d="m5.32,10.79c1.22.1,2.47-.69,3.83-2.44,1.91-2.45,3.54-3.7,4.98-3.79,1.39-.1,2.39.88,3.27,1.74.78.76,1.45,1.41,2.24,1.29.86-.14,1.77-1.17,2.88-3.27,1.13-2.14,2.3-3.36,3.49-3.65v.17c-1.12.29-2.24,1.48-3.34,3.55-1.13,2.15-2.09,3.21-3,3.36-.88.14-1.61-.58-2.39-1.33-.86-.83-1.83-1.78-3.14-1.69-1.39.1-2.98,1.31-4.85,3.73-1.31,1.69-2.54,2.51-3.75,2.51-.08,0-.15,0-.23,0-2.12-.18-3.81-2.97-5.3-5.71v-.36c1.51,2.79,3.21,5.72,5.32,5.9Z"></path> <path class="cls-1" d="m5.31,10.76c1.22.1,2.48-.69,3.83-2.42,1.91-2.44,3.54-3.68,4.98-3.78,1.39-.1,2.39.87,3.27,1.73.78.75,1.45,1.4,2.24,1.28.86-.14,1.77-1.17,2.88-3.25,1.13-2.13,2.3-3.35,3.49-3.63v.17c-1.13.29-2.25,1.47-3.34,3.54-1.13,2.13-2.08,3.19-3,3.34-.88.14-1.61-.57-2.39-1.33-.86-.83-1.82-1.76-3.14-1.68-1.39.1-2.98,1.31-4.85,3.71-1.31,1.68-2.54,2.5-3.75,2.5-.08,0-.15,0-.23,0-2.12-.18-3.81-2.95-5.3-5.67v-.36c1.5,2.78,3.21,5.68,5.31,5.86Z"></path> <path class="cls-1" d="m5.3,10.72c1.22.11,2.48-.69,3.83-2.41,1.91-2.43,3.54-3.66,4.97-3.76,1.39-.1,2.39.87,3.27,1.72.78.75,1.45,1.4,2.25,1.27.86-.14,1.77-1.16,2.88-3.23,1.13-2.12,2.3-3.33,3.5-3.61v.17c-1.13.28-2.25,1.46-3.35,3.52-1.13,2.12-2.08,3.18-3,3.32-.88.14-1.61-.57-2.39-1.32-.86-.83-1.83-1.76-3.14-1.67-1.39.1-2.98,1.3-4.85,3.69-1.31,1.67-2.54,2.49-3.75,2.49-.08,0-.15,0-.23,0-2.12-.18-3.8-2.93-5.29-5.64v-.35c1.5,2.76,3.2,5.64,5.3,5.82Z"></path> <path class="cls-1" d="m5.3,10.69c1.22.1,2.48-.68,3.84-2.4,1.91-2.42,3.53-3.64,4.97-3.74,1.39-.09,2.39.86,3.27,1.71.78.75,1.45,1.39,2.25,1.27.86-.14,1.77-1.16,2.87-3.22,1.13-2.12,2.31-3.32,3.5-3.6v.17c-1.13.28-2.26,1.45-3.36,3.5-1.13,2.11-2.08,3.16-3,3.3-.88.14-1.61-.57-2.39-1.31-.86-.82-1.83-1.76-3.14-1.66-1.39.1-2.98,1.3-4.85,3.67-1.31,1.66-2.54,2.47-3.75,2.47-.08,0-.15,0-.23,0-2.11-.18-3.8-2.91-5.28-5.6v-.35c1.5,2.74,3.2,5.6,5.3,5.78Z"></path> <path class="cls-1" d="m5.29,10.66c1.22.11,2.48-.68,3.84-2.39,1.91-2.4,3.53-3.62,4.97-3.72,1.39-.09,2.39.86,3.27,1.7.78.74,1.45,1.39,2.25,1.26.86-.14,1.77-1.15,2.87-3.2,1.13-2.11,2.31-3.3,3.51-3.58v.17c-1.13.28-2.26,1.44-3.36,3.49-1.13,2.1-2.08,3.14-2.99,3.29-.88.14-1.61-.56-2.39-1.3-.86-.82-1.83-1.75-3.14-1.65-1.39.1-2.98,1.29-4.85,3.66-1.31,1.65-2.54,2.46-3.75,2.46-.08,0-.15,0-.23,0-2.11-.18-3.79-2.89-5.28-5.56v-.34c1.5,2.72,3.2,5.56,5.29,5.74Z"></path> <path class="cls-1" d="m5.28,10.63c1.23.11,2.48-.67,3.84-2.38,1.91-2.39,3.53-3.6,4.97-3.7,1.39-.1,2.39.85,3.27,1.69.78.74,1.46,1.38,2.25,1.25.86-.14,1.77-1.15,2.87-3.19,1.14-2.1,2.32-3.29,3.51-3.56v.17c-1.13.27-2.27,1.44-3.37,3.47-1.13,2.09-2.08,3.12-2.99,3.27-.88.14-1.61-.56-2.39-1.3-.86-.81-1.83-1.73-3.15-1.65-1.39.1-2.98,1.29-4.85,3.64-1.31,1.64-2.54,2.45-3.75,2.45-.08,0-.16,0-.23,0-2.1-.18-3.79-2.87-5.27-5.53v-.34c1.5,2.71,3.19,5.52,5.28,5.7Z"></path> <path class="cls-1" d="m5.28,10.59c1.23.1,2.48-.67,3.84-2.36,1.91-2.38,3.53-3.58,4.97-3.68,1.38-.09,2.39.85,3.27,1.68.78.74,1.46,1.38,2.26,1.25.86-.14,1.77-1.14,2.87-3.17,1.14-2.09,2.32-3.28,3.52-3.54v.17c-1.14.27-2.27,1.43-3.37,3.46-1.13,2.07-2.08,3.11-2.99,3.25-.88.14-1.61-.55-2.39-1.29-.86-.81-1.83-1.73-3.15-1.64-1.39.1-2.98,1.28-4.85,3.62-1.31,1.64-2.54,2.43-3.75,2.43-.08,0-.16,0-.23,0-2.1-.18-3.78-2.85-5.26-5.49v-.33c1.5,2.69,3.19,5.48,5.28,5.66Z"></path> <path class="cls-1" d="m5.27,10.56c1.23.1,2.49-.66,3.85-2.35,1.91-2.36,3.53-3.56,4.96-3.66,1.39-.1,2.39.84,3.27,1.67.78.73,1.46,1.37,2.26,1.24.86-.14,1.77-1.14,2.87-3.15,1.14-2.08,2.32-3.26,3.52-3.53v.16c-1.14.27-2.27,1.42-3.38,3.44-1.13,2.06-2.08,3.09-2.99,3.23-.88.14-1.61-.55-2.39-1.28-.86-.81-1.83-1.72-3.15-1.63-1.39.1-2.98,1.27-4.85,3.6-1.31,1.63-2.54,2.42-3.75,2.42-.08,0-.16,0-.24,0-2.1-.18-3.77-2.83-5.25-5.45v-.33c1.49,2.67,3.18,5.44,5.27,5.62Z"></path> <path class="cls-1" d="m5.26,10.53c1.23.11,2.49-.66,3.85-2.34,1.9-2.35,3.53-3.54,4.96-3.64,1.38-.09,2.39.84,3.27,1.66.78.73,1.45,1.36,2.26,1.24.86-.14,1.77-1.13,2.87-3.14,1.14-2.08,2.32-3.25,3.52-3.51v.16c-1.14.26-2.28,1.41-3.39,3.42-1.13,2.05-2.07,3.07-2.98,3.22-.88.14-1.61-.55-2.39-1.28-.86-.8-1.83-1.71-3.15-1.62-1.39.1-2.98,1.27-4.85,3.58-1.31,1.62-2.54,2.41-3.75,2.41-.08,0-.16,0-.24-.01-2.09-.18-3.77-2.81-5.25-5.42v-.32c1.49,2.65,3.18,5.4,5.26,5.58Z"></path> <path class="cls-1" d="m5.25,10.49c1.23.11,2.49-.66,3.85-2.33,1.9-2.34,3.53-3.52,4.96-3.62,1.39-.09,2.39.83,3.27,1.66.78.73,1.46,1.36,2.26,1.23.86-.14,1.77-1.13,2.87-3.12,1.14-2.07,2.33-3.24,3.53-3.49v.16c-1.15.26-2.28,1.4-3.39,3.41-1.12,2.04-2.07,3.05-2.98,3.2-.88.14-1.61-.54-2.39-1.27-.86-.8-1.83-1.7-3.15-1.61-1.39.1-2.98,1.26-4.85,3.56-1.31,1.61-2.54,2.4-3.75,2.4-.08,0-.16,0-.24,0-2.09-.18-3.76-2.79-5.24-5.38v-.31c1.49,2.63,3.18,5.36,5.25,5.54Z"></path> <path class="cls-1" d="m5.25,10.46c1.23.11,2.49-.65,3.86-2.32,1.9-2.32,3.53-3.5,4.96-3.6,1.39-.1,2.39.83,3.27,1.65.78.73,1.46,1.35,2.27,1.22.86-.14,1.77-1.12,2.87-3.1,1.14-2.06,2.33-3.23,3.53-3.48v.16c-1.15.26-2.29,1.39-3.4,3.39-1.12,2.03-2.07,3.04-2.98,3.18-.88.14-1.62-.54-2.39-1.26-.86-.8-1.83-1.7-3.16-1.61-1.39.1-2.98,1.26-4.85,3.55-1.31,1.6-2.54,2.38-3.75,2.38-.08,0-.16,0-.24-.01-2.09-.18-3.76-2.77-5.23-5.34v-.31c1.49,2.62,3.17,5.32,5.25,5.5Z"></path> <path class="cls-1" d="m5.24,10.43c1.23.11,2.49-.65,3.86-2.3,1.9-2.31,3.52-3.48,4.96-3.58,1.39-.1,2.39.82,3.27,1.64.78.72,1.46,1.35,2.27,1.22.86-.14,1.77-1.12,2.87-3.09,1.15-2.05,2.33-3.21,3.54-3.46v.15c-1.15.25-2.29,1.38-3.41,3.37-1.12,2.01-2.07,3.02-2.98,3.17-.88.14-1.62-.54-2.39-1.25-.86-.79-1.83-1.69-3.16-1.6-1.39.1-2.98,1.25-4.85,3.53-1.31,1.59-2.54,2.37-3.75,2.37-.08,0-.16,0-.24,0-2.08-.18-3.75-2.75-5.23-5.31v-.3c1.49,2.6,3.17,5.28,5.24,5.46Z"></path> <path class="cls-1" d="m5.23,10.4c1.23.1,2.49-.64,3.86-2.29,1.9-2.3,3.52-3.46,4.96-3.56,1.39-.1,2.39.82,3.27,1.63.79.72,1.46,1.34,2.27,1.21.86-.14,1.77-1.11,2.87-3.07,1.15-2.04,2.33-3.19,3.54-3.44v.15c-1.15.25-2.3,1.37-3.41,3.36-1.12,2-2.07,3-2.98,3.15-.88.14-1.62-.53-2.4-1.25-.86-.79-1.83-1.68-3.16-1.59-1.39.1-2.98,1.24-4.85,3.51-1.31,1.58-2.54,2.36-3.74,2.36-.08,0-.16,0-.25-.01-2.08-.18-3.75-2.73-5.22-5.27v-.3c1.49,2.58,3.17,5.24,5.23,5.42Z"></path> <path class="cls-1" d="m5.23,10.36c1.23.11,2.5-.64,3.86-2.28,1.9-2.29,3.52-3.44,4.95-3.54,1.39-.1,2.39.82,3.27,1.62.79.72,1.47,1.33,2.27,1.2.86-.14,1.77-1.11,2.87-3.06,1.15-2.04,2.34-3.18,3.55-3.42v.15c-1.15.25-2.3,1.36-3.42,3.34-1.12,1.99-2.07,2.99-2.97,3.13-.88.14-1.62-.53-2.4-1.24-.86-.78-1.83-1.67-3.16-1.58-1.39.1-2.97,1.24-4.85,3.49-1.31,1.58-2.54,2.34-3.74,2.34-.08,0-.16,0-.25-.01-2.08-.18-3.74-2.71-5.21-5.24v-.29c1.48,2.56,3.16,5.2,5.23,5.38Z"></path> <path class="cls-1" d="m5.22,10.33c1.23.11,2.5-.63,3.87-2.27,1.9-2.27,3.52-3.43,4.95-3.52,1.38-.09,2.39.81,3.27,1.61.79.71,1.47,1.33,2.28,1.2.86-.14,1.77-1.1,2.87-3.04,1.15-2.03,2.34-3.16,3.55-3.4v.15c-1.16.24-2.3,1.35-3.42,3.33-1.12,1.98-2.07,2.97-2.97,3.11-.88.14-1.62-.53-2.4-1.23-.86-.78-1.84-1.66-3.16-1.57-1.39.1-2.98,1.23-4.85,3.47-1.31,1.57-2.54,2.33-3.74,2.33-.08,0-.17,0-.25-.01-2.07-.18-3.74-2.69-5.21-5.2v-.29c1.48,2.55,3.16,5.16,5.22,5.34Z"></path> <path class="cls-1" d="m5.21,10.3c1.23.11,2.5-.63,3.87-2.26,1.9-2.26,3.52-3.41,4.95-3.5,1.39-.09,2.39.81,3.27,1.6.79.71,1.46,1.32,2.28,1.19.86-.14,1.77-1.1,2.87-3.02,1.15-2.02,2.34-3.15,3.55-3.39v.15c-1.16.24-2.31,1.34-3.43,3.31-1.12,1.97-2.06,2.95-2.97,3.1-.88.14-1.62-.52-2.4-1.23-.86-.78-1.84-1.66-3.17-1.56-1.39.1-2.98,1.23-4.85,3.45-1.31,1.56-2.54,2.32-3.74,2.32-.08,0-.17,0-.25-.01-2.07-.18-3.73-2.67-5.2-5.16v-.29c1.48,2.53,3.15,5.12,5.21,5.3Z"></path> <path class="cls-1" d="m5.2,10.26c1.24.11,2.5-.63,3.87-2.25,1.9-2.25,3.52-3.39,4.95-3.49,1.39-.09,2.39.8,3.27,1.59.79.71,1.47,1.32,2.28,1.18.86-.14,1.77-1.09,2.87-3.01,1.15-2.01,2.35-3.14,3.56-3.37v.15c-1.16.23-2.31,1.33-3.44,3.29-1.12,1.95-2.06,2.93-2.97,3.08-.88.14-1.62-.52-2.4-1.22-.86-.77-1.84-1.65-3.17-1.56-1.39.1-2.97,1.22-4.85,3.44-1.31,1.55-2.54,2.31-3.74,2.31-.08,0-.17,0-.25-.01-2.07-.18-3.73-2.65-5.19-5.13v-.28c1.48,2.51,3.15,5.08,5.2,5.27Z"></path> <path class="cls-1" d="m5.2,10.23c1.24.11,2.5-.62,3.87-2.23,1.9-2.23,3.52-3.37,4.95-3.47,1.39-.1,2.39.8,3.27,1.58.79.7,1.47,1.31,2.28,1.18.86-.14,1.77-1.09,2.87-2.99,1.16-2,2.35-3.12,3.56-3.35v.14c-1.16.23-2.32,1.33-3.44,3.28-1.12,1.94-2.06,2.92-2.96,3.06-.88.14-1.62-.52-2.4-1.21-.86-.77-1.84-1.64-3.17-1.55-1.39.1-2.98,1.21-4.85,3.42-1.31,1.54-2.54,2.29-3.74,2.29-.08,0-.17,0-.25-.01-2.06-.18-3.72-2.63-5.19-5.09v-.27c1.48,2.49,3.14,5.05,5.2,5.23Z"></path> <path class="cls-1" d="m5.19,10.2c1.24.11,2.5-.62,3.88-2.22,1.9-2.22,3.52-3.35,4.94-3.45,1.39-.09,2.39.79,3.27,1.57.79.7,1.47,1.31,2.28,1.17.86-.14,1.77-1.08,2.87-2.98,1.16-2,2.35-3.11,3.57-3.33v.14c-1.16.23-2.32,1.32-3.45,3.26-1.12,1.93-2.06,2.9-2.96,3.04-.88.14-1.62-.51-2.4-1.2-.86-.77-1.84-1.63-3.17-1.54-1.39.1-2.98,1.21-4.85,3.4-1.31,1.53-2.54,2.28-3.74,2.28-.08,0-.17,0-.25-.01-2.06-.18-3.72-2.62-5.18-5.06v-.27c1.47,2.48,3.14,5.01,5.19,5.19Z"></path> <path class="cls-1" d="m5.18,10.17c1.24.11,2.51-.61,3.88-2.21,1.9-2.21,3.51-3.33,4.94-3.43,1.39-.1,2.39.79,3.27,1.57.79.7,1.47,1.3,2.29,1.16.86-.14,1.77-1.08,2.86-2.96,1.16-1.99,2.36-3.1,3.57-3.31v.14c-1.17.22-2.33,1.31-3.46,3.24-1.12,1.92-2.06,2.88-2.96,3.03-.88.14-1.62-.51-2.4-1.2-.86-.76-1.84-1.63-3.17-1.53-1.39.1-2.97,1.2-4.85,3.38-1.31,1.52-2.54,2.27-3.74,2.27-.08,0-.17,0-.26-.01-2.06-.18-3.71-2.6-5.17-5.02v-.27c1.47,2.46,3.14,4.97,5.18,5.15Z"></path> <path class="cls-1" d="m5.18,10.13c1.24.11,2.51-.61,3.88-2.2,1.9-2.19,3.51-3.31,4.94-3.41,1.39-.1,2.39.78,3.27,1.56.79.69,1.47,1.29,2.29,1.16.86-.14,1.77-1.07,2.86-2.94,1.16-1.98,2.36-3.08,3.58-3.3v.14c-1.17.22-2.33,1.3-3.46,3.23-1.12,1.91-2.06,2.86-2.96,3.01-.88.14-1.62-.5-2.4-1.19-.86-.76-1.84-1.62-3.18-1.52-1.39.1-2.97,1.2-4.85,3.36-1.31,1.51-2.54,2.25-3.74,2.25-.09,0-.17,0-.26-.01-2.05-.18-3.71-2.58-5.16-4.98v-.26c1.47,2.44,3.13,4.93,5.18,5.11Z"></path> <path class="cls-1" d="m5.17,10.1c1.24.11,2.51-.61,3.88-2.19,1.9-2.18,3.51-3.29,4.94-3.39,1.39-.1,2.39.78,3.27,1.55.79.69,1.47,1.29,2.29,1.15.86-.14,1.77-1.07,2.86-2.93,1.16-1.97,2.36-3.06,3.58-3.28v.13c-1.17.21-2.33,1.29-3.47,3.21-1.12,1.9-2.06,2.85-2.96,2.99-.88.14-1.62-.5-2.4-1.18-.86-.75-1.84-1.61-3.18-1.52-1.39.1-2.98,1.19-4.85,3.34-1.31,1.51-2.53,2.24-3.74,2.24-.09,0-.17,0-.26-.01-2.05-.18-3.7-2.56-5.16-4.95v-.26c1.47,2.42,3.13,4.89,5.17,5.07Z"></path> <path class="cls-1" d="m5.16,10.07c1.24.11,2.51-.6,3.89-2.17,4.45-5.09,6.54-3.28,8.21-1.83.79.69,1.47,1.28,2.29,1.15.86-.14,1.77-1.06,2.86-2.91,1.16-1.96,2.37-3.05,3.59-3.26v.13c-1.17.21-2.34,1.28-3.47,3.2-1.12,1.88-2.05,2.83-2.95,2.97-.88.15-1.62-.5-2.4-1.18-1.72-1.49-3.66-3.18-8.03,1.82-1.31,1.5-2.53,2.23-3.74,2.23-.09,0-.17,0-.26-.01-2.05-.18-3.69-2.54-5.15-4.91v-.25c1.47,2.41,3.12,4.85,5.16,5.03Z"></path> <path class="cls-1" d="m5.15,10.03c1.24.11,2.51-.6,3.89-2.16,4.45-5.06,6.53-3.26,8.21-1.82.79.68,1.47,1.27,2.3,1.14.86-.14,1.77-1.06,2.86-2.9,1.16-1.95,2.37-3.04,3.59-3.24v.13c-1.18.21-2.34,1.27-3.48,3.18-1.12,1.87-2.05,2.81-2.95,2.96-.88.14-1.62-.49-2.4-1.17-1.72-1.48-3.66-3.16-8.03,1.81-1.31,1.49-2.53,2.22-3.74,2.22-.09,0-.17,0-.26-.01-2.04-.18-3.69-2.52-5.14-4.88v-.25c1.46,2.39,3.12,4.82,5.15,5Z"></path> <path class="cls-1" d="m5.15,10c1.24.11,2.52-.59,3.89-2.15,4.45-5.03,6.53-3.25,8.21-1.81.79.68,1.48,1.27,2.3,1.13.86-.14,1.77-1.05,2.86-2.88,1.17-1.94,2.37-3.02,3.6-3.23v.13c-1.18.21-2.35,1.26-3.49,3.16-1.11,1.86-2.05,2.79-2.95,2.94-.88.14-1.62-.49-2.4-1.16-1.72-1.47-3.66-3.14-8.03,1.8-1.31,1.48-2.53,2.2-3.73,2.2-.09,0-.18,0-.26-.01-2.04-.18-3.68-2.5-5.14-4.84v-.24c1.46,2.37,3.12,4.78,5.15,4.96Z"></path> <path class="cls-1" d="m5.14,9.97c1.24.11,2.52-.59,3.89-2.14,4.45-5,6.53-3.23,8.21-1.8.79.68,1.48,1.26,2.3,1.13.86-.14,1.77-1.05,2.86-2.86,1.17-1.94,2.37-3.01,3.6-3.21v.13c-1.18.2-2.35,1.25-3.49,3.14-1.11,1.85-2.05,2.78-2.95,2.92-.88.14-1.62-.49-2.4-1.16-1.72-1.46-3.66-3.12-8.03,1.79-1.31,1.47-2.53,2.19-3.73,2.19-.09,0-.18,0-.27-.01-2.04-.18-3.68-2.48-5.13-4.81v-.24c1.46,2.35,3.11,4.74,5.14,4.92Z"></path> <path class="cls-1" d="m5.13,9.94c1.24.11,2.52-.58,3.9-2.13,4.45-4.97,6.53-3.21,8.21-1.79.79.67,1.48,1.25,2.3,1.12.86-.14,1.77-1.04,2.86-2.85,1.17-1.93,2.38-3,3.6-3.19v.13c-1.18.2-2.36,1.25-3.5,3.13-1.11,1.84-2.05,2.76-2.94,2.91-.88.14-1.62-.48-2.4-1.15-1.72-1.46-3.66-3.11-8.03,1.78-1.31,1.46-2.53,2.18-3.73,2.18-.09,0-.18,0-.27-.01-2.03-.18-3.67-2.47-5.12-4.77v-.23c1.46,2.34,3.11,4.7,5.13,4.88Z"></path> <path class="cls-1" d="m5.12,9.9c1.24.11,2.52-.58,3.9-2.11,4.45-4.95,6.53-3.19,8.2-1.78.79.67,1.48,1.25,2.31,1.11.86-.14,1.76-1.04,2.86-2.83,1.17-1.92,2.38-2.98,3.61-3.17v.12c-1.19.19-2.36,1.24-3.5,3.11-1.11,1.82-2.05,2.74-2.94,2.89-.88.14-1.62-.48-2.41-1.14-1.72-1.45-3.67-3.09-8.03,1.77-1.31,1.45-2.53,2.17-3.73,2.17-.09,0-.18,0-.27-.01-2.03-.18-3.67-2.45-5.11-4.74v-.23c1.46,2.32,3.1,4.66,5.12,4.85Z"></path> <path class="cls-1" d="m5.12,9.87c1.25.11,2.52-.58,3.9-2.1,4.45-4.92,6.53-3.17,8.2-1.77.8.67,1.48,1.24,2.31,1.11.86-.14,1.76-1.03,2.86-2.82,1.17-1.91,2.38-2.96,3.61-3.15v.12c-1.19.19-2.37,1.23-3.51,3.1-1.11,1.81-2.05,2.72-2.94,2.87-.88.14-1.62-.48-2.41-1.13-1.72-1.44-3.67-3.07-8.04,1.76-1.31,1.45-2.53,2.15-3.73,2.15-.09,0-.18,0-.27-.01-2.02-.18-3.66-2.43-5.11-4.7v-.22c1.46,2.3,3.1,4.63,5.12,4.81Z"></path> <path class="cls-1" d="m5.11,9.84c1.25.11,2.53-.57,3.91-2.09,4.45-4.89,6.53-3.15,8.2-1.76.8.66,1.48,1.23,2.31,1.1.86-.14,1.76-1.03,2.85-2.8,1.17-1.9,2.39-2.95,3.62-3.14v.12c-1.19.19-2.37,1.22-3.52,3.08-1.11,1.8-2.04,2.71-2.94,2.85-.88.14-1.62-.47-2.41-1.13-1.72-1.43-3.67-3.06-8.04,1.75-1.31,1.44-2.53,2.14-3.73,2.14-.09,0-.18,0-.27-.01-2.02-.18-3.66-2.41-5.1-4.67v-.22c1.45,2.29,3.1,4.59,5.11,4.77Z"></path> <path class="cls-1" d="m5.1,9.8c1.25.11,2.53-.57,3.91-2.08,4.45-4.86,6.53-3.13,8.2-1.75.8.66,1.48,1.23,2.31,1.09.86-.14,1.76-1.02,2.85-2.78,1.18-1.89,2.39-2.94,3.62-3.12v.12c-1.19.18-2.37,1.21-3.52,3.06-1.11,1.79-2.04,2.69-2.93,2.84-.88.15-1.62-.47-2.41-1.12-1.72-1.42-3.67-3.04-8.04,1.74-1.31,1.43-2.53,2.13-3.73,2.13-.09,0-.18,0-.28-.01-2.02-.18-3.65-2.39-5.09-4.63v-.22c1.45,2.27,3.09,4.55,5.1,4.73Z"></path> <path class="cls-1" d="m5.1,9.77c1.25.11,2.53-.56,3.91-2.06,4.44-4.83,6.53-3.12,8.2-1.74.8.66,1.49,1.22,2.32,1.09.86-.14,1.76-1.02,2.85-2.77,1.18-1.88,2.39-2.92,3.63-3.1v.12c-1.19.18-2.38,1.2-3.53,3.05-1.11,1.78-2.04,2.67-2.93,2.82-.88.14-1.62-.47-2.41-1.11-1.72-1.42-3.67-3.02-8.04,1.73-1.31,1.42-2.53,2.11-3.73,2.11-.09,0-.19,0-.28-.01-2.01-.18-3.64-2.37-5.08-4.6v-.21c1.45,2.25,3.09,4.52,5.1,4.7Z"></path> <path class="cls-1" d="m5.09,9.74c1.25.11,2.53-.56,3.91-2.05,4.44-4.8,6.52-3.1,8.2-1.73.8.65,1.49,1.22,2.32,1.08.86-.14,1.76-1.01,2.85-2.75,1.18-1.88,2.4-2.91,3.63-3.08v.12c-1.2.18-2.38,1.19-3.54,3.03-1.11,1.77-2.04,2.66-2.93,2.8-.88.15-1.62-.46-2.41-1.11-1.72-1.41-3.67-3-8.04,1.72-1.31,1.41-2.53,2.1-3.73,2.1-.09,0-.19,0-.28-.01-2.01-.18-3.64-2.36-5.08-4.56v-.21c1.45,2.24,3.08,4.48,5.09,4.66Z"></path> <path class="cls-1" d="m5.08,9.71c1.25.11,2.53-.56,3.92-2.04,4.44-4.77,6.52-3.08,8.19-1.72.8.65,1.49,1.21,2.32,1.08.86-.14,1.76-1.01,2.85-2.73,1.18-1.87,2.4-2.89,3.64-3.06v.11c-1.2.18-2.39,1.18-3.54,3.01-1.11,1.75-2.04,2.64-2.93,2.78-.88.14-1.62-.46-2.41-1.1-1.72-1.4-3.67-2.99-8.04,1.71-1.31,1.4-2.53,2.09-3.73,2.09-.09,0-.19,0-.28-.01-2.01-.18-3.63-2.34-5.07-4.53v-.2c1.45,2.22,3.08,4.44,5.08,4.62Z"></path> <path class="cls-1" d="m5.07,9.67c1.25.12,2.54-.55,3.92-2.03,4.44-4.74,6.52-3.06,8.19-1.71.8.65,1.49,1.2,2.33,1.07.86-.14,1.76-1,2.85-2.72,1.18-1.86,2.4-2.88,3.64-3.05v.11c-1.2.17-2.39,1.17-3.55,3-1.11,1.74-2.04,2.62-2.92,2.77-.88.14-1.63-.46-2.41-1.09-1.72-1.39-3.67-2.97-8.04,1.7-1.31,1.39-2.53,2.08-3.73,2.08-.09,0-.19,0-.28-.01-2-.18-3.63-2.32-5.06-4.49v-.2c1.44,2.2,3.08,4.41,5.07,4.58Z"></path> <path class="cls-1" d="m5.07,9.64c1.25.11,2.54-.55,3.92-2.02,4.44-4.71,6.52-3.04,8.19-1.7.8.64,1.49,1.2,2.33,1.06.86-.14,1.76-1,2.85-2.7,1.18-1.85,2.41-2.86,3.64-3.03v.11c-1.2.17-2.39,1.16-3.55,2.98-1.11,1.73-2.03,2.6-2.92,2.75-.88.14-1.63-.45-2.41-1.08-1.72-1.38-3.67-2.95-8.05,1.69-1.31,1.39-2.53,2.06-3.72,2.06-.1,0-.19,0-.29-.01-2-.18-3.62-2.3-5.06-4.46v-.19c1.44,2.18,3.07,4.37,5.07,4.55Z"></path> <path class="cls-1" d="m5.06,9.61c1.25.11,2.54-.54,3.93-2,4.44-4.68,6.52-3.02,8.19-1.69.8.64,1.49,1.19,2.33,1.06.86-.14,1.76-.99,2.85-2.69,1.18-1.84,2.41-2.85,3.65-3.01v.1c-1.21.16-2.4,1.16-3.56,2.96-1.11,1.72-2.03,2.59-2.92,2.73-.88.14-1.63-.45-2.41-1.08-1.72-1.38-3.67-2.94-8.05,1.68-1.31,1.38-2.53,2.05-3.72,2.05-.1,0-.19,0-.29-.01-2-.18-3.62-2.28-5.05-4.43v-.19c1.44,2.17,3.07,4.33,5.06,4.51Z"></path> <path class="cls-1" d="m5.05,9.57c1.26.12,2.54-.54,3.93-1.99,4.44-4.65,6.52-3,8.19-1.68.8.64,1.49,1.19,2.33,1.05.85-.14,1.76-.99,2.85-2.67,1.19-1.83,2.41-2.83,3.65-2.99v.1c-1.21.16-2.4,1.15-3.57,2.95-1.1,1.71-2.03,2.57-2.92,2.72-.88.15-1.63-.45-2.41-1.07-1.72-1.37-3.67-2.92-8.05,1.67-1.31,1.37-2.53,2.04-3.72,2.04-.1,0-.19,0-.29-.01-1.99-.18-3.61-2.27-5.04-4.39v-.19c1.44,2.15,3.06,4.29,5.05,4.47Z"></path> <path class="cls-1" d="m5.04,9.54c1.26.11,2.54-.53,3.93-1.98,4.44-4.62,6.52-2.98,8.19-1.67.8.63,1.49,1.18,2.34,1.04.85-.14,1.76-.98,2.85-2.65,1.19-1.82,2.41-2.82,3.66-2.98v.1c-1.21.16-2.41,1.14-3.57,2.93-1.1,1.7-2.03,2.55-2.92,2.7-.89.15-1.63-.44-2.41-1.06-1.72-1.36-3.67-2.9-8.05,1.66-1.31,1.36-2.53,2.03-3.72,2.03-.1,0-.19,0-.29-.01-1.99-.18-3.61-2.25-5.03-4.36v-.18c1.44,2.13,3.06,4.26,5.04,4.44Z"></path> <path class="cls-1" d="m5.04,9.51c1.26.12,2.54-.53,3.93-1.97,4.44-4.6,6.52-2.97,8.19-1.66.8.63,1.5,1.17,2.34,1.04.85-.14,1.76-.98,2.85-2.64,1.19-1.81,2.42-2.8,3.66-2.96v.1c-1.21.16-2.41,1.13-3.58,2.91-1.1,1.68-2.03,2.54-2.91,2.68-.89.14-1.63-.44-2.41-1.06-1.72-1.35-3.68-2.88-8.05,1.65-1.31,1.35-2.53,2.01-3.72,2.01-.1,0-.2,0-.29-.01-1.99-.18-3.6-2.23-5.03-4.33v-.18c1.43,2.12,3.05,4.22,5.04,4.4Z"></path> <path class="cls-1" d="m5.03,9.48c1.26.12,2.55-.53,3.94-1.96,4.44-4.57,6.51-2.95,8.18-1.65.8.63,1.5,1.17,2.34,1.03.86-.14,1.76-.97,2.84-2.62,1.19-1.81,2.42-2.79,3.67-2.94v.1c-1.21.15-2.42,1.12-3.59,2.89-1.1,1.67-2.03,2.52-2.91,2.66-.88.15-1.63-.43-2.42-1.05-1.72-1.34-3.68-2.87-8.05,1.64-1.31,1.34-2.53,2-3.72,2-.1,0-.2,0-.3-.01-1.98-.18-3.59-2.21-5.02-4.29v-.17c1.43,2.1,3.05,4.19,5.03,4.37Z"></path> <path class="cls-1" d="m5.02,9.44c1.26.11,2.55-.52,3.94-1.94,4.44-4.54,6.51-2.93,8.18-1.64.8.62,1.5,1.16,2.34,1.02.85-.14,1.76-.97,2.84-2.6,1.19-1.8,2.42-2.77,3.67-2.92v.1c-1.21.15-2.42,1.11-3.59,2.88-1.1,1.66-2.03,2.5-2.91,2.65-.88.14-1.63-.43-2.42-1.04-1.72-1.34-3.68-2.85-8.05,1.63-1.3,1.33-2.52,1.99-3.72,1.99-.1,0-.2,0-.3-.01-1.98-.18-3.59-2.2-5.01-4.26v-.17c1.43,2.08,3.05,4.15,5.02,4.33Z"></path> <path class="cls-1" d="m5.01,9.41c1.26.12,2.55-.52,3.94-1.93,4.44-4.51,6.51-2.91,8.18-1.62.81.62,1.5,1.16,2.35,1.02.85-.14,1.76-.96,2.84-2.59,1.19-1.79,2.43-2.76,3.68-2.9v.09c-1.22.15-2.42,1.1-3.6,2.86-1.1,1.65-2.02,2.48-2.91,2.63-.88.15-1.63-.43-2.42-1.04-1.72-1.33-3.68-2.83-8.06,1.62-1.3,1.33-2.52,1.97-3.72,1.97-.1,0-.2,0-.3-.01-1.97-.18-3.58-2.18-5-4.22v-.16c1.43,2.07,3.04,4.11,5.01,4.29Z"></path> <path class="cls-1" d="m5,9.38c1.26.12,2.55-.51,3.95-1.92,4.44-4.48,6.51-2.89,8.18-1.62.81.62,1.5,1.15,2.35,1.01.85-.14,1.76-.96,2.84-2.57,1.19-1.78,2.43-2.74,3.68-2.88v.09c-1.22.14-2.43,1.09-3.6,2.84-1.1,1.64-2.02,2.47-2.9,2.61-.88.15-1.63-.42-2.42-1.03-1.72-1.32-3.68-2.82-8.06,1.61-1.3,1.32-2.52,1.96-3.72,1.96-.1,0-.2,0-.3-.01-1.97-.18-3.58-2.16-5-4.19v-.16c1.43,2.05,3.04,4.08,5,4.26Z"></path> <path class="cls-1" d="m5,9.34c1.26.12,2.56-.51,3.95-1.91,4.44-4.45,6.51-2.87,8.18-1.6.81.61,1.5,1.14,2.35,1,.85-.14,1.76-.95,2.84-2.56,1.2-1.77,2.43-2.73,3.69-2.87v.09c-1.22.14-2.43,1.09-3.61,2.83-1.1,1.62-2.02,2.45-2.9,2.59-.89.14-1.63-.42-2.42-1.02-1.72-1.31-3.68-2.8-8.06,1.6-1.3,1.31-2.52,1.95-3.72,1.95-.1,0-.2,0-.3-.01-1.97-.18-3.57-2.14-4.99-4.16v-.16c1.42,2.03,3.03,4.04,5,4.22Z"></path> <path class="cls-1" d="m4.99,9.31c1.26.11,2.56-.5,3.95-1.9,4.44-4.42,6.51-2.85,8.18-1.59.81.61,1.5,1.14,2.35,1,.85-.14,1.76-.95,2.84-2.54,1.2-1.76,2.44-2.71,3.69-2.85v.09c-1.22.14-2.44,1.08-3.62,2.81-1.1,1.61-2.02,2.43-2.9,2.58-.89.15-1.63-.42-2.42-1.01-1.72-1.3-3.68-2.78-8.06,1.59-1.3,1.3-2.52,1.94-3.72,1.94-.1,0-.2,0-.31-.01-1.96-.18-3.57-2.12-4.98-4.12v-.15c1.42,2.02,3.03,4.01,4.99,4.19Z"></path> <path class="cls-1" d="m4.98,9.28c1.27.11,2.56-.5,3.96-1.88,4.43-4.39,6.51-2.84,8.18-1.58.81.61,1.5,1.13,2.36.99.85-.14,1.75-.94,2.84-2.52,1.2-1.75,2.44-2.7,3.69-2.83v.09c-1.22.13-2.44,1.07-3.62,2.79-1.1,1.6-2.02,2.41-2.89,2.56-.89.15-1.63-.41-2.42-1.01-1.73-1.3-3.68-2.76-8.06,1.58-1.3,1.29-2.52,1.92-3.72,1.92-.1,0-.21,0-.31-.01-1.96-.18-3.56-2.11-4.97-4.09v-.15c1.42,2,3.03,3.97,4.98,4.15Z"></path> <path class="cls-1" d="m4.97,9.25c1.27.12,2.56-.5,3.96-1.87,4.43-4.36,6.51-2.82,8.17-1.57.81.6,1.51,1.12,2.36.98.85-.14,1.75-.94,2.84-2.51,1.2-1.74,2.44-2.69,3.7-2.81v.09c-1.23.13-2.45,1.06-3.63,2.78-1.1,1.59-2.01,2.4-2.89,2.54-.89.15-1.63-.41-2.42-1-1.73-1.29-3.68-2.75-8.06,1.57-1.3,1.28-2.52,1.91-3.72,1.91-.1,0-.21,0-.31-.01-1.96-.18-3.55-2.09-4.97-4.06v-.15c1.42,1.98,3.02,3.94,4.97,4.12Z"></path> <path class="cls-1" d="m4.97,9.21c1.27.12,2.56-.49,3.96-1.86,4.43-4.33,6.51-2.8,8.17-1.56.81.6,1.51,1.12,2.36.98.85-.14,1.75-.93,2.83-2.49,1.2-1.73,2.45-2.67,3.7-2.79v.08c-1.23.13-2.45,1.05-3.63,2.76-1.1,1.58-2.01,2.38-2.89,2.53-.89.15-1.63-.41-2.42-.99-1.73-1.28-3.68-2.73-8.06,1.56-1.3,1.27-2.52,1.9-3.71,1.9-.1,0-.21,0-.31-.01-1.95-.18-3.55-2.07-4.96-4.02v-.14c1.42,1.97,3.02,3.9,4.97,4.08Z"></path> <path class="cls-1" d="m4.96,9.18c1.27.12,2.57-.49,3.97-1.85,4.43-4.3,6.5-2.78,8.17-1.55.81.6,1.51,1.11,2.37.97.85-.14,1.75-.93,2.83-2.47,1.2-1.72,2.45-2.65,3.71-2.78v.08c-1.23.12-2.46,1.04-3.64,2.74-1.09,1.57-2.01,2.36-2.89,2.51-.89.15-1.63-.4-2.43-.99-1.73-1.27-3.68-2.71-8.07,1.55-1.3,1.27-2.52,1.88-3.71,1.88-.11,0-.21,0-.32-.01-1.95-.18-3.54-2.06-4.95-3.99v-.14c1.42,1.95,3.01,3.87,4.96,4.05Z"></path> <path class="cls-1" d="m4.95,9.15c1.27.12,2.57-.48,3.97-1.84,4.43-4.28,6.5-2.76,8.17-1.54.81.59,1.51,1.11,2.37.96.85-.14,1.75-.92,2.83-2.46,1.21-1.72,2.45-2.64,3.71-2.76v.08c-1.24.12-2.46,1.03-3.65,2.72-1.09,1.56-2.01,2.35-2.88,2.49-.89.15-1.64-.4-2.43-.98-1.73-1.26-3.68-2.69-8.07,1.54-1.3,1.26-2.52,1.87-3.71,1.87-.11,0-.21,0-.32-.01-1.95-.18-3.54-2.04-4.94-3.96v-.13c1.41,1.94,3.01,3.83,4.95,4.01Z"></path> <path class="cls-1" d="m4.94,9.11c1.27.12,2.57-.48,3.97-1.82,4.43-4.25,6.5-2.74,8.17-1.53.81.59,1.51,1.1,2.37.96.85-.14,1.75-.92,2.83-2.44,1.21-1.71,2.45-2.62,3.72-2.74v.08c-1.24.12-2.46,1.02-3.65,2.71-1.09,1.54-2.01,2.33-2.88,2.47-.89.15-1.64-.4-2.43-.97-1.73-1.26-3.68-2.68-8.07,1.53-1.3,1.25-2.52,1.86-3.71,1.86-.11,0-.21,0-.32-.01-1.94-.18-3.53-2.02-4.94-3.92v-.13c1.41,1.92,3,3.8,4.94,3.98Z"></path> <path class="cls-1" d="m4.94,9.08c1.27.12,2.57-.48,3.97-1.81,4.43-4.22,6.5-2.72,8.17-1.52.78.56,1.51,1.1,2.37.95.85-.14,1.75-.91,2.83-2.43,1.21-1.7,2.46-2.61,3.72-2.72v.08c-1.24.12-2.47,1.02-3.66,2.69-1.09,1.53-2.01,2.31-2.88,2.46-.89.14-1.64-.39-2.43-.96-.82-.59-1.75-1.27-3-1.27h-.02c-1.44,0-3.09.92-5.05,2.78-1.3,1.24-2.52,1.85-3.71,1.85-.11,0-.22,0-.32-.02-1.94-.18-3.52-2-4.93-3.89v-.13c1.41,1.9,3,3.76,4.94,3.94Z"></path> <path class="cls-1" d="m4.93,9.05c1.27.12,2.57-.47,3.98-1.8,4.43-4.19,6.5-2.7,8.17-1.51,1.53,1.1,2.74,1.97,5.2-1.46,1.21-1.69,2.46-2.59,3.73-2.71v.08c-1.24.11-2.47,1.01-3.67,2.67-2.5,3.49-3.8,2.56-5.31,1.48-.83-.59-1.77-1.27-3.02-1.26-1.44,0-3.1.91-5.05,2.76-1.3,1.23-2.52,1.83-3.71,1.83-.11,0-.22,0-.32-.01-1.94-.18-3.52-1.99-4.92-3.86v-.12c1.41,1.89,3,3.73,4.93,3.91Z"></path> <path class="cls-1" d="m4.92,9.02c1.27.12,2.58-.47,3.98-1.79,4.43-4.16,6.5-2.69,8.16-1.5,1.53,1.09,2.74,1.95,5.2-1.45,1.21-1.68,2.46-2.58,3.73-2.69v.07c-1.24.11-2.48,1-3.67,2.65-2.5,3.47-3.8,2.54-5.31,1.47-.82-.59-1.75-1.25-3-1.25h-.02c-1.44,0-3.1.91-5.05,2.74-1.3,1.22-2.52,1.82-3.71,1.82-.11,0-.22,0-.33-.02-1.93-.18-3.51-1.97-4.91-3.83v-.12c1.41,1.87,2.99,3.7,4.92,3.87Z"></path> <path class="cls-1" d="m4.91,8.98c1.28.12,2.58-.46,3.98-1.77,1.97-1.84,3.64-2.74,5.1-2.75h.02c1.27,0,2.21.67,3.04,1.25,1.53,1.08,2.75,1.94,5.21-1.45,1.21-1.67,2.47-2.56,3.74-2.67v.07c-1.25.11-2.48.99-3.68,2.64-2.5,3.44-3.8,2.52-5.3,1.46-.82-.58-1.75-1.24-3-1.24h-.02c-1.44,0-3.1.9-5.05,2.73-1.3,1.21-2.52,1.81-3.71,1.81-.11,0-.22,0-.33-.02-1.93-.18-3.51-1.95-4.91-3.79v-.12c1.4,1.85,2.99,3.66,4.91,3.84Z"></path> <path class="cls-1" d="m4.9,8.95c1.28.12,2.58-.46,3.99-1.76,1.97-1.83,3.64-2.72,5.1-2.73h.02c1.27,0,2.21.66,3.04,1.25,1.53,1.08,2.75,1.93,5.21-1.44,1.21-1.66,2.47-2.55,3.74-2.65v.07c-1.25.1-2.48.98-3.68,2.62-2.5,3.42-3.8,2.51-5.3,1.45-.82-.58-1.75-1.23-3-1.23h-.02c-1.44,0-3.1.89-5.05,2.71-1.3,1.21-2.52,1.8-3.71,1.8-.11,0-.22,0-.33-.02-1.92-.18-3.5-1.94-4.9-3.76v-.11c1.4,1.84,2.98,3.63,4.9,3.81Z"></path> <path class="cls-1" d="m4.9,8.92c1.28.12,2.58-.45,3.99-1.75,1.97-1.81,3.64-2.7,5.1-2.71,0,0,.01,0,.02,0,1.27,0,2.21.66,3.04,1.24,1.54,1.07,2.75,1.92,5.21-1.43,1.22-1.65,2.47-2.53,3.74-2.63v.07c-1.25.1-2.49.97-3.69,2.6-2.5,3.39-3.8,2.49-5.3,1.44-.82-.57-1.76-1.22-3-1.22h-.02c-1.44,0-3.1.89-5.05,2.69-1.3,1.2-2.52,1.78-3.71,1.78-.11,0-.22,0-.33-.02-1.92-.18-3.5-1.92-4.89-3.73v-.11c1.4,1.82,2.98,3.59,4.9,3.77Z"></path> <path class="cls-1" d="m4.89,8.88c1.28.12,2.58-.45,3.99-1.74,1.97-1.8,3.64-2.68,5.1-2.69h.02c1.27,0,2.21.65,3.04,1.23,1.54,1.06,2.75,1.9,5.21-1.42,1.22-1.64,2.48-2.51,3.75-2.61v.06c-1.25.1-2.49.96-3.7,2.59-2.5,3.37-3.8,2.47-5.3,1.43-.82-.57-1.75-1.22-3-1.22h-.02c-1.44,0-3.1.88-5.06,2.67-1.3,1.19-2.52,1.77-3.71,1.77-.11,0-.22,0-.34-.02-1.92-.18-3.49-1.9-4.88-3.7v-.11c1.4,1.81,2.97,3.56,4.89,3.74Z"></path> <path class="cls-1" d="m4.88,8.85c1.28.12,2.59-.45,4-1.73,1.97-1.79,3.64-2.66,5.1-2.67h.02c1.27,0,2.21.65,3.04,1.22,1.54,1.06,2.75,1.89,5.21-1.41,1.22-1.63,2.48-2.5,3.75-2.59v.06c-1.25.09-2.5.96-3.7,2.57-2.5,3.34-3.8,2.45-5.3,1.42-.82-.57-1.76-1.21-3-1.21h-.02c-1.44,0-3.1.88-5.06,2.65-1.3,1.18-2.52,1.76-3.71,1.76-.11,0-.23,0-.34-.02-1.91-.18-3.48-1.89-4.87-3.66v-.1c1.4,1.79,2.97,3.53,4.88,3.7Z"></path> <path class="cls-1" d="m4.82,8.91c1.28.12,2.58-.45,3.99-1.73,1.96-1.78,3.62-2.66,5.08-2.67h.02c1.26,0,2.2.65,3.03,1.22,1.54,1.06,2.76,1.9,5.24-1.41,1.24-1.65,2.52-2.52,3.82-2.58v.06c-1.28.07-2.54.92-3.77,2.56-2.52,3.35-3.82,2.46-5.33,1.42-.82-.57-1.75-1.21-2.99-1.21h-.02c-1.44,0-3.08.88-5.03,2.65-1.3,1.18-2.52,1.76-3.71,1.76-.11,0-.22,0-.33-.02-1.88-.17-3.44-1.83-4.81-3.58v-.1c1.38,1.76,2.93,3.44,4.82,3.62Z"></path> <path class="cls-1" d="m4.75,8.96c1.28.11,2.58-.45,3.99-1.74,1.95-1.78,3.6-2.65,5.05-2.66h.03c1.25,0,2.19.64,3.02,1.21.75.51,1.45,1,2.26.93.9-.07,1.86-.82,3.01-2.34,1.26-1.68,2.57-2.54,3.89-2.58v.06c-1.3.04-2.59.89-3.84,2.55-2.53,3.36-3.84,2.46-5.35,1.42-.82-.56-1.75-1.2-2.99-1.2h-.03c-1.43.01-3.07.88-5.01,2.65-1.3,1.19-2.52,1.77-3.71,1.77-.11,0-.22,0-.33-.01-1.85-.17-3.39-1.78-4.75-3.49v-.1c1.36,1.73,2.9,3.36,4.75,3.53Z"></path> <path class="cls-1" d="m4.69,9.02c1.28.11,2.58-.46,3.99-1.74,1.94-1.78,3.59-2.65,5.03-2.66,0,0,.02,0,.03,0,1.25,0,2.18.64,3.01,1.21.75.51,1.45,1,2.27.93.91-.07,1.87-.82,3.03-2.34,1.29-1.7,2.62-2.56,3.96-2.56v.06c-1.32,0-2.63.86-3.91,2.54-2.55,3.36-3.86,2.46-5.38,1.42-1.72-1.18-3.67-2.52-8,1.44-1.3,1.19-2.52,1.77-3.71,1.77-.11,0-.22,0-.32-.01-1.83-.16-3.34-1.73-4.68-3.41v-.1c1.35,1.69,2.86,3.28,4.69,3.44Z"></path> <path class="cls-1" d="m4.62,9.07c1.28.11,2.58-.46,3.98-1.75,1.93-1.77,3.57-2.64,5.01-2.66,1.26,0,2.2.64,3.03,1.21.75.51,1.46,1,2.28.94.91-.07,1.88-.82,3.05-2.34,1.31-1.72,2.67-2.58,4.03-2.55v.06c-1.34-.03-2.68.82-3.98,2.52-2.57,3.37-3.89,2.47-5.41,1.42-1.72-1.18-3.66-2.51-7.97,1.44-1.3,1.19-2.52,1.78-3.71,1.78-.11,0-.21,0-.32-.01-1.8-.16-3.29-1.67-4.62-3.32v-.1c1.33,1.66,2.83,3.2,4.62,3.36Z"></path> <path class="cls-1" d="m4.56,9.13c1.28.11,2.58-.46,3.98-1.75,1.92-1.77,3.56-2.64,4.99-2.65,1.26-.01,2.2.63,3.03,1.2,1.5,1.03,2.8,1.92,5.36-1.41,1.33-1.74,2.71-2.59,4.1-2.53v.06h0c-1.36-.06-2.72.78-4.05,2.51-2.59,3.38-3.91,2.47-5.44,1.42-1.71-1.17-3.65-2.5-7.94,1.44-1.3,1.2-2.52,1.78-3.71,1.78-.11,0-.21,0-.31-.01-1.77-.15-3.24-1.62-4.55-3.24v-.1c1.31,1.63,2.79,3.12,4.56,3.27Z"></path> <path class="cls-1" d="m4.49,9.18c1.27.11,2.57-.47,3.97-1.76,1.92-1.77,3.54-2.64,4.97-2.65.01,0,.02,0,.03,0,1.23,0,2.16.64,2.99,1.2,1.51,1.04,2.81,1.93,5.38-1.41,1.33-1.73,2.7-2.58,4.08-2.52.03,0,.06,0,.09,0v.06s-.06,0-.09,0c-.04,0-.08,0-.12,0-1.31,0-2.63.84-3.9,2.5-2.6,3.38-3.93,2.47-5.47,1.42-1.71-1.17-3.65-2.5-7.91,1.44-1.3,1.2-2.52,1.79-3.71,1.79-.1,0-.21,0-.31-.01-1.74-.15-3.19-1.57-4.49-3.16v-.1c1.3,1.59,2.75,3.04,4.49,3.19Z"></path> <path class="cls-1" d="m4.43,9.24c1.27.11,2.57-.47,3.97-1.77,1.91-1.77,3.52-2.63,4.94-2.65h.04c1.23,0,2.16.64,2.98,1.2,1.52,1.04,2.83,1.94,5.41-1.41,1.29-1.67,2.62-2.51,3.95-2.51.04,0,.08,0,.11,0,.06,0,.12,0,.17.01v.06c-.06,0-.12-.01-.18-.01-.04,0-.07,0-.11,0-1.31,0-2.62.84-3.9,2.49-2.62,3.39-3.95,2.48-5.49,1.42-1.71-1.17-3.64-2.49-7.88,1.44-1.3,1.2-2.52,1.79-3.71,1.79-.1,0-.2,0-.3-.01-1.71-.14-3.14-1.53-4.42-3.07v-.09c1.28,1.56,2.72,2.96,4.43,3.11Z"></path> <path class="cls-1" d="m4.36,9.29c1.27.1,2.57-.47,3.97-1.77,4.26-3.96,6.21-2.62,7.93-1.45,1.52,1.04,2.84,1.94,5.44-1.41,1.29-1.66,2.62-2.5,3.94-2.5.03,0,.07,0,.1,0,.09,0,.17.01.26.02v.06c-.09-.01-.17-.02-.26-.02-.03,0-.07,0-.1,0-1.31,0-2.62.83-3.89,2.48-2.64,3.4-3.98,2.48-5.52,1.42-1.7-1.16-3.63-2.48-7.85,1.44-1.3,1.21-2.52,1.8-3.71,1.8-.1,0-.2,0-.3-.01-1.68-.14-3.1-1.48-4.36-2.99v-.09c1.26,1.53,2.68,2.89,4.36,3.02Z"></path> <path class="cls-1" d="m4.3,9.35c1.27.11,2.57-.48,3.96-1.78,4.24-3.95,6.18-2.62,7.9-1.45,1.53,1.04,2.85,1.95,5.47-1.41,1.29-1.65,2.61-2.49,3.94-2.49.03,0,.06,0,.09,0,.12,0,.23.01.34.03v.06c-.11-.02-.23-.03-.34-.03-1.34-.04-2.67.79-3.98,2.46-2.66,3.4-4,2.48-5.55,1.42-1.7-1.16-3.62-2.48-7.83,1.44-1.3,1.21-2.52,1.8-3.71,1.8-.1,0-.2,0-.29-.01-1.65-.14-3.05-1.43-4.29-2.91v-.09c1.25,1.49,2.65,2.81,4.3,2.94Z"></path> <path class="cls-1" d="m4.23,9.41c1.27.1,2.57-.48,3.96-1.78,4.22-3.95,6.16-2.62,7.87-1.45,1.53,1.05,2.86,1.95,5.5-1.41,1.29-1.64,2.61-2.47,3.93-2.47.03,0,.06,0,.09,0,.14,0,.28.02.42.04v.06c-.14-.02-.28-.04-.43-.04-.03,0-.06,0-.08,0-1.3,0-2.61.82-3.88,2.45-2.67,3.41-4.02,2.49-5.58,1.42-1.69-1.16-3.61-2.47-7.8,1.44-1.3,1.21-2.52,1.81-3.71,1.81-.1,0-.19,0-.29-.01-1.62-.13-3-1.38-4.23-2.83v-.09c1.23,1.46,2.61,2.73,4.23,2.86Z"></path> <path class="cls-1" d="m4.17,9.46c.09,0,.19.01.28.01,1.18,0,2.39-.59,3.67-1.8,4.2-3.94,6.13-2.61,7.84-1.45,1.54,1.05,2.87,1.96,5.53-1.41,1.29-1.63,2.61-2.46,3.92-2.46.03,0,.05,0,.08,0,.17,0,.34.02.51.05v.06c-.17-.03-.33-.05-.51-.06-.03,0-.05,0-.08,0-1.3,0-2.6.82-3.88,2.44-2.69,3.41-4.04,2.49-5.61,1.42-1.69-1.16-3.61-2.46-7.77,1.44-1.3,1.22-2.52,1.82-3.71,1.82-.1,0-.19,0-.29-.01-1.6-.13-2.95-1.34-4.16-2.75v-.09c1.21,1.43,2.57,2.66,4.17,2.78Z"></path> <path class="cls-1" d="m4.1,9.52c1.27.1,2.56-.49,3.95-1.79,4.18-3.93,6.11-2.61,7.81-1.45,1.55,1.06,2.88,1.97,5.56-1.41,1.29-1.63,2.61-2.45,3.92-2.45.02,0,.05,0,.07,0,.2,0,.39.03.58.07v.06c-.19-.04-.39-.07-.59-.07-1.32-.03-2.65.79-3.95,2.43-2.71,3.42-4.06,2.49-5.63,1.42-1.69-1.15-3.6-2.46-7.74,1.44-1.3,1.22-2.52,1.82-3.71,1.82-.09,0-.19,0-.28-.01-1.57-.12-2.9-1.29-4.1-2.67v-.09c1.2,1.39,2.54,2.58,4.1,2.7Z"></path> <path class="cls-1" d="m4.04,9.57c1.27.1,2.56-.49,3.95-1.8,4.16-3.92,6.08-2.61,7.79-1.45,1.55,1.06,2.89,1.97,5.58-1.41,1.29-1.62,2.6-2.44,3.91-2.44.02,0,.05,0,.07,0,.23,0,.45.04.66.09v.06c-.22-.05-.44-.08-.66-.09-.02,0-.04,0-.07,0-1.29,0-2.59.81-3.87,2.42-2.73,3.43-4.09,2.5-5.66,1.42-1.68-1.15-3.59-2.45-7.71,1.44-1.3,1.23-2.52,1.83-3.71,1.83-.09,0-.18,0-.28-.01-1.54-.12-2.86-1.25-4.03-2.59v-.09c1.18,1.36,2.5,2.5,4.04,2.62Z"></path> <path class="cls-1" d="m3.97,9.63c1.27.09,2.56-.5,3.94-1.81,4.14-3.92,6.06-2.6,7.76-1.45,1.56,1.06,2.9,1.98,5.61-1.41,1.29-1.61,2.6-2.43,3.91-2.43.02,0,.04,0,.06,0,.25,0,.5.04.74.1v.06c-.24-.06-.49-.1-.74-.11h-.06c-1.29,0-2.59.81-3.86,2.4-2.75,3.43-4.11,2.5-5.69,1.42-1.68-1.15-3.58-2.44-7.69,1.44-1.3,1.23-2.52,1.83-3.71,1.83-.09,0-.18,0-.27,0-1.51-.12-2.81-1.2-3.97-2.52v-.09c1.16,1.32,2.46,2.43,3.97,2.54Z"></path> <path class="cls-1" d="m3.91,9.69c1.27.1,2.56-.5,3.94-1.81,4.12-3.91,6.04-2.6,7.73-1.45,1.56,1.07,2.91,1.99,5.64-1.41,1.29-1.6,2.6-2.41,3.9-2.41.02,0,.04,0,.06,0,.28,0,.55.05.82.12v.06c-.27-.07-.54-.12-.82-.12-.02,0-.04,0-.06,0-1.29,0-2.58.81-3.86,2.39-2.76,3.44-4.13,2.5-5.72,1.42-1.68-1.14-3.58-2.44-7.66,1.44-1.3,1.23-2.52,1.84-3.72,1.84-.09,0-.18,0-.27,0-1.49-.11-2.76-1.16-3.9-2.44v-.09c1.15,1.29,2.42,2.36,3.91,2.47Z"></path> <path class="cls-1" d="m3.84,9.74c1.27.09,2.55-.5,3.94-1.82,4.09-3.9,6.01-2.6,7.7-1.44,1.57,1.07,2.92,1.99,5.67-1.41,1.29-1.59,2.6-2.4,3.9-2.4.02,0,.04,0,.06,0,.31,0,.61.06.9.15v.06c-.29-.09-.59-.14-.9-.15-.02,0-.04,0-.06,0-1.28,0-2.58.8-3.86,2.38-1.27,1.57-2.33,2.34-3.32,2.4-.05,0-.1,0-.15,0-.83,0-1.53-.48-2.28-.98-1.67-1.14-3.57-2.43-7.63,1.44-1.3,1.24-2.52,1.84-3.72,1.84-.09,0-.17,0-.26,0-1.46-.11-2.71-1.12-3.84-2.36v-.08c1.13,1.26,2.39,2.29,3.84,2.39Z"></path> <path class="cls-1" d="m3.78,9.8c1.27.09,2.55-.5,3.93-1.82,4.07-3.9,5.99-2.59,7.67-1.45,1.57,1.07,2.93,2,5.7-1.41,1.29-1.59,2.6-2.39,3.9-2.39.02,0,.04,0,.05,0,.33,0,.66.07.97.17v.06c-.31-.1-.64-.17-.97-.17-.02,0-.04,0-.05,0-1.28,0-2.58.8-3.85,2.37-1.28,1.58-2.34,2.34-3.34,2.41-.9.06-1.64-.45-2.43-.98-1.67-1.14-3.56-2.43-7.6,1.44-1.3,1.24-2.52,1.85-3.72,1.85-.09,0-.17,0-.26,0-1.43-.1-2.66-1.08-3.77-2.29v-.08c1.11,1.22,2.35,2.22,3.78,2.32Z"></path> <path class="cls-1" d="m3.71,9.85c1.27.09,2.55-.51,3.93-1.83,4.05-3.89,5.96-2.59,7.64-1.44,1.58,1.08,2.94,2,5.73-1.41,1.29-1.58,2.6-2.38,3.89-2.38.02,0,.04,0,.05,0,.36,0,.71.08,1.05.19v.06c-.34-.12-.69-.19-1.05-.2h-.05c-1.28,0-2.57.79-3.85,2.36-1.29,1.58-2.35,2.34-3.36,2.41-.9.06-1.65-.45-2.44-.99-1.67-1.13-3.55-2.42-7.57,1.44-1.3,1.25-2.52,1.85-3.72,1.85-.08,0-.17,0-.25,0-1.4-.1-2.61-1.04-3.71-2.22v-.08c1.1,1.19,2.31,2.14,3.71,2.24Z"></path> <path class="cls-1" d="m3.65,9.91c1.27.09,2.55-.51,3.93-1.84,4.03-3.88,5.94-2.59,7.61-1.44,1.59,1.08,2.96,2.01,5.76-1.41,1.3-1.59,2.63-2.39,3.94-2.37.39,0,.76.08,1.12.21v.06c-.36-.13-.73-.21-1.12-.22-.02,0-.03,0-.05,0-1.27,0-2.57.79-3.84,2.35-1.29,1.58-2.37,2.35-3.38,2.41-.91.06-1.66-.45-2.45-.99-1.66-1.13-3.54-2.41-7.54,1.44-1.3,1.25-2.52,1.86-3.72,1.86-.08,0-.17,0-.25,0-1.37-.1-2.57-1-3.64-2.14v-.08c1.08,1.15,2.27,2.07,3.65,2.17Z"></path> <path class="cls-1" d="m3.58,9.97c1.26.09,2.55-.52,3.92-1.84,4.01-3.88,5.91-2.58,7.59-1.44,1.59,1.08,2.97,2.02,5.79-1.41,1.29-1.57,2.59-2.36,3.88-2.36.02,0,.03,0,.05,0,.42,0,.81.09,1.2.24v.06c-.38-.15-.78-.24-1.2-.24-.02,0-.03,0-.05,0-1.27,0-2.56.79-3.84,2.34-1.3,1.58-2.38,2.35-3.4,2.42-.91.06-1.66-.45-2.46-.99-1.66-1.13-3.54-2.41-7.52,1.44-1.3,1.25-2.52,1.87-3.72,1.87-.08,0-.16,0-.24,0-1.35-.09-2.52-.96-3.58-2.07v-.08c1.06,1.12,2.24,2,3.58,2.09Z"></path> <path class="cls-1" d="m3.52,10.02c1.26.08,2.55-.52,3.92-1.85,3.99-3.87,5.89-2.58,7.56-1.44,1.6,1.09,2.98,2.02,5.81-1.41,1.29-1.56,2.59-2.35,3.88-2.35h.05c.44,0,.87.11,1.27.27v.06c-.41-.17-.83-.27-1.27-.28h-.05c-1.27,0-2.56.78-3.83,2.33-1.31,1.59-2.4,2.35-3.42,2.42-.92.06-1.67-.45-2.46-.99-.83-.57-1.69-1.15-2.82-1.15-.02,0-.04,0-.06,0-1.33.02-2.83.87-4.6,2.59-1.3,1.26-2.52,1.87-3.72,1.87-.08,0-.16,0-.24,0-1.32-.09-2.47-.93-3.51-2v-.08c1.04,1.09,2.2,1.94,3.52,2.03Z"></path> <path class="cls-1" d="m3.45,10.08c1.26.08,2.54-.52,3.91-1.85,3.97-3.86,5.86-2.58,7.53-1.44,1.6,1.09,2.99,2.03,5.84-1.41,1.29-1.55,2.59-2.34,3.87-2.34.02,0,.03,0,.05,0,.47,0,.92.12,1.34.3v.06c-.43-.19-.88-.3-1.35-.31h-.05c-1.27,0-2.56.78-3.83,2.32-1.32,1.59-2.41,2.36-3.44,2.42-.92.06-1.67-.45-2.47-1-.84-.57-1.72-1.17-2.88-1.15-1.32.03-2.82.87-4.58,2.58-1.3,1.26-2.52,1.88-3.72,1.88-.08,0-.16,0-.23,0-1.29-.09-2.42-.89-3.45-1.93v-.08c1.03,1.05,2.16,1.87,3.45,1.95Z"></path> <path class="cls-1" d="m3.38,10.13c1.27.08,2.54-.53,3.91-1.86,3.95-3.85,5.84-2.57,7.5-1.44.79.54,1.54,1.04,2.45.99,1.02-.06,2.11-.83,3.42-2.41,1.3-1.56,2.62-2.34,3.92-2.32.5,0,.97.13,1.42.34v.06c-.45-.21-.92-.33-1.42-.34-.02,0-.03,0-.05,0-1.26,0-2.55.78-3.83,2.31-2.91,3.49-4.38,2.49-5.94,1.43-.83-.56-1.68-1.14-2.81-1.14-.02,0-.04,0-.06,0-1.31.03-2.81.87-4.56,2.58-1.3,1.27-2.52,1.88-3.72,1.88-.08,0-.15,0-.23,0-1.26-.08-2.37-.85-3.38-1.86v-.08c1.01,1.02,2.12,1.8,3.38,1.89Z"></path> <path class="cls-1" d="m3.32,10.19c1.26.08,2.54-.53,3.91-1.87,3.93-3.85,5.81-2.57,7.47-1.44.75.51,1.47,1,2.32,1,.04,0,.09,0,.13,0,1.03-.06,2.12-.83,3.45-2.41,1.29-1.54,2.58-2.31,3.86-2.31.02,0,.03,0,.05,0,.52,0,1.02.14,1.49.37v.06c-.47-.23-.97-.36-1.49-.37-1.28-.02-2.58.75-3.87,2.3-2.92,3.5-4.4,2.49-5.97,1.43-.83-.56-1.68-1.14-2.8-1.14-.02,0-.04,0-.07,0-1.31.03-2.79.87-4.54,2.58-1.3,1.27-2.52,1.89-3.73,1.89-.07,0-.15,0-.22,0-1.24-.08-2.33-.82-3.31-1.79v-.08c.99.99,2.08,1.74,3.32,1.82Z"></path> <path class="cls-1" d="m3.25,10.25c1.26.08,2.54-.53,3.91-1.87,1.75-1.71,3.24-2.56,4.56-2.59,1.16-.03,2.04.57,2.89,1.15.79.54,1.55,1.05,2.46,1,1.03-.06,2.13-.83,3.47-2.41,1.28-1.53,2.58-2.3,3.86-2.3h.05c.55,0,1.07.16,1.56.4v.06c-.49-.25-1.02-.4-1.56-.41-.02,0-.03,0-.05,0-1.26,0-2.54.77-3.82,2.29-2.94,3.5-4.43,2.49-6,1.43-.82-.56-1.68-1.14-2.79-1.14-.02,0-.04,0-.07,0-1.3.03-2.78.87-4.52,2.57-1.3,1.27-2.52,1.9-3.73,1.9-.07,0-.15,0-.22,0-1.21-.08-2.28-.78-3.25-1.73v-.07c.97.95,2.04,1.67,3.25,1.75Z"></path> <path class="cls-1" d="m3.19,10.3c1.26.08,2.54-.54,3.9-1.88,1.74-1.71,3.22-2.56,4.53-2.59.02,0,.05,0,.07,0,1.12,0,1.98.58,2.81,1.15.76.51,1.48,1,2.34,1,.04,0,.09,0,.13,0,1.04-.06,2.15-.83,3.49-2.42,1.28-1.52,2.58-2.29,3.85-2.29.02,0,.03,0,.05,0,.58,0,1.12.18,1.64.44v.06c-.52-.27-1.06-.44-1.64-.45h-.05c-1.26,0-2.54.76-3.81,2.27-2.96,3.51-4.45,2.5-6.03,1.43-.82-.56-1.67-1.14-2.78-1.14-.02,0-.05,0-.07,0-1.3.03-2.77.87-4.5,2.57-1.3,1.28-2.52,1.9-3.73,1.9-.07,0-.14,0-.22,0-1.18-.07-2.23-.75-3.18-1.66v-.07c.96.92,2,1.61,3.19,1.68Z"></path> <path class="cls-1" d="m3.12,10.36c1.26.08,2.54-.54,3.9-1.89,1.73-1.71,3.21-2.55,4.51-2.58.02,0,.05,0,.07,0,1.12,0,1.97.58,2.8,1.14.8.54,1.55,1.05,2.48,1,1.04-.06,2.16-.83,3.51-2.42,1.28-1.52,2.58-2.28,3.85-2.28.02,0,.03,0,.05,0,.6,0,1.17.19,1.71.48v.06c-.54-.29-1.11-.48-1.71-.49h-.05c-1.26,0-2.54.76-3.81,2.26-2.98,3.52-4.47,2.5-6.05,1.43-.82-.56-1.67-1.13-2.77-1.13-.02,0-.05,0-.07,0-1.29.03-2.76.87-4.48,2.57-1.3,1.28-2.52,1.91-3.73,1.91-.07,0-.14,0-.21,0-1.16-.07-2.18-.72-3.12-1.6v-.07c.94.89,1.97,1.55,3.12,1.62Z"></path> <path class="cls-1" d="m3.06,10.42c1.26.07,2.54-.55,3.9-1.89,1.72-1.71,3.19-2.55,4.49-2.58,1.15-.03,2.02.57,2.87,1.14.76.52,1.49,1.01,2.36,1.01.04,0,.09,0,.13,0,1.05-.06,2.17-.83,3.53-2.42,1.28-1.51,2.58-2.27,3.85-2.27h.05c.63,0,1.22.21,1.78.52v.06c-.56-.32-1.15-.52-1.78-.53-.02,0-.03,0-.05,0-1.25,0-2.53.76-3.81,2.25-3,3.52-4.5,2.5-6.08,1.43-.82-.56-1.66-1.13-2.76-1.13-.02,0-.05,0-.07,0-1.29.03-2.74.87-4.46,2.56-1.3,1.29-2.52,1.91-3.73,1.91-.07,0-.14,0-.21,0-1.13-.07-2.13-.69-3.05-1.53v-.07c.92.86,1.93,1.49,3.06,1.55Z"></path> <path class="cls-1" d="m2.99,10.47c1.26.07,2.54-.55,3.89-1.9,1.71-1.7,3.17-2.55,4.47-2.58.03,0,.05,0,.08,0,1.11,0,1.96.58,2.78,1.14,1.57,1.07,3.06,2.08,6.04-1.42,1.28-1.5,2.58-2.26,3.84-2.26.02,0,.03,0,.05,0,.66.01,1.28.22,1.85.55v.06c-.58-.34-1.19-.55-1.85-.56-.02,0-.03,0-.05,0-1.25,0-2.53.75-3.8,2.25-3.01,3.53-4.52,2.51-6.11,1.43-.82-.55-1.66-1.13-2.76-1.13-.02,0-.05,0-.07,0-1.28.03-2.73.87-4.43,2.56-1.3,1.29-2.52,1.92-3.73,1.92-.07,0-.13,0-.2,0-1.1-.06-2.09-.66-2.99-1.47v-.07c.9.82,1.89,1.42,2.99,1.49Z"></path> <path class="cls-1" d="m2.92,10.53c1.26.07,2.53-.55,3.89-1.91,1.7-1.7,3.16-2.54,4.45-2.57.03,0,.05,0,.08,0,1.1,0,1.95.58,2.78,1.13,1.58,1.07,3.07,2.08,6.07-1.42,1.28-1.5,2.58-2.25,3.84-2.25.02,0,.04,0,.05,0,.69.01,1.33.24,1.92.59v.06c-.6-.36-1.24-.59-1.92-.6h-.05c-1.25,0-2.53.75-3.8,2.24-3.03,3.53-4.54,2.51-6.14,1.43-.82-.55-1.66-1.12-2.75-1.12-.03,0-.05,0-.08,0-1.28.03-2.72.87-4.41,2.56-1.3,1.29-2.52,1.93-3.73,1.93-.07,0-.13,0-.2,0-1.08-.06-2.04-.62-2.92-1.41v-.07c.88.79,1.85,1.36,2.92,1.42Z"></path> <path class="cls-1" d="m2.86,10.59c.06,0,.13,0,.19,0,1.2,0,2.41-.63,3.7-1.92,1.7-1.7,3.14-2.54,4.43-2.57.03,0,.05,0,.08,0,1.1,0,1.95.58,2.77,1.13,1.58,1.07,3.08,2.09,6.1-1.42,1.28-1.49,2.57-2.24,3.84-2.24.02,0,.04,0,.05,0,.71.01,1.38.26,1.99.64v.06c-.62-.39-1.28-.64-1.99-.65-.02,0-.04,0-.05,0-1.25,0-2.52.75-3.8,2.23-3.05,3.54-4.56,2.51-6.17,1.43-1.69-1.15-3.44-2.34-7.21,1.43-1.3,1.3-2.52,1.93-3.73,1.93-.06,0-.13,0-.19,0-1.05-.06-1.99-.6-2.85-1.35v-.07c.87.76,1.81,1.31,2.86,1.36Z"></path> <path class="cls-1" d="m2.79,10.64c.06,0,.12,0,.19,0,1.2,0,2.41-.63,3.7-1.92,1.69-1.7,3.13-2.54,4.41-2.57.03,0,.05,0,.08,0,1.09,0,1.94.57,2.76,1.13,1.59,1.08,3.09,2.09,6.13-1.42,1.28-1.48,2.57-2.23,3.83-2.23.02,0,.04,0,.05,0,.74.01,1.43.28,2.06.68v.06c-.64-.41-1.32-.68-2.06-.69-.02,0-.04,0-.05,0-1.25,0-2.52.75-3.79,2.22-3.07,3.55-4.59,2.52-6.2,1.43-1.69-1.14-3.43-2.33-7.18,1.43-1.3,1.3-2.52,1.94-3.74,1.94-.06,0-.12,0-.19,0-1.02-.06-1.94-.57-2.79-1.29v-.07c.85.73,1.77,1.25,2.79,1.3Z"></path> <path class="cls-1" d="m2.73,10.7c1.26.07,2.53-.56,3.88-1.93,1.68-1.69,3.11-2.53,4.39-2.56.03,0,.05,0,.08,0,1.09,0,1.93.57,2.75,1.13,1.59,1.08,3.1,2.1,6.16-1.42,1.28-1.48,2.57-2.22,3.83-2.22.02,0,.04,0,.06,0,.77.01,1.48.3,2.13.73v.06c-.66-.44-1.37-.73-2.14-.74-1.26-.03-2.55.72-3.85,2.21-3.09,3.55-4.61,2.52-6.22,1.43-1.68-1.14-3.43-2.32-7.15,1.43-1.3,1.31-2.52,1.95-3.74,1.95-.06,0-.12,0-.18,0-1-.05-1.89-.54-2.72-1.23v-.07c.83.7,1.73,1.19,2.73,1.25Z"></path> <path class="cls-1" d="m2.66,10.76c.06,0,.12,0,.18,0,1.2,0,2.42-.64,3.7-1.94,1.67-1.69,3.1-2.53,4.36-2.56,1.12-.03,1.99.56,2.82,1.12,1.6,1.08,3.11,2.11,6.19-1.42,1.32-1.51,2.59-2.24,3.88-2.21.79.01,1.53.32,2.21.78v.06c-.68-.47-1.41-.77-2.21-.79-.02,0-.04,0-.06,0-1.26,0-2.49.72-3.78,2.2-3.11,3.56-4.63,2.52-6.25,1.43-1.68-1.14-3.42-2.32-7.12,1.43-1.3,1.31-2.52,1.95-3.74,1.95-.06,0-.12,0-.18,0-.97-.05-1.85-.51-2.66-1.17v-.07c.81.67,1.69,1.14,2.66,1.19Z"></path> <path class="cls-1" d="m2.59,10.81c1.26.06,2.53-.57,3.88-1.94,1.66-1.69,3.08-2.52,4.34-2.56,1.12-.03,1.98.55,2.81,1.12,1.6,1.09,3.12,2.11,6.21-1.42,1.3-1.48,2.55-2.21,3.82-2.21.02,0,.04,0,.06,0,.82.02,1.58.34,2.28.83v.06c-.7-.49-1.46-.82-2.28-.84h-.06c-1.25,0-2.49.72-3.78,2.19-3.12,3.57-4.66,2.53-6.28,1.43-1.68-1.14-3.41-2.31-7.09,1.43-1.3,1.32-2.52,1.96-3.74,1.96-.06,0-.12,0-.18,0-.94-.05-1.8-.48-2.59-1.12v-.06c.79.64,1.65,1.08,2.59,1.13Z"></path> <path class="cls-1" d="m2.53,10.87c1.26.06,2.53-.57,3.87-1.95,3.7-3.76,5.44-2.58,7.13-1.44,1.61,1.09,3.13,2.12,6.24-1.42,1.3-1.48,2.55-2.2,3.81-2.2.02,0,.04,0,.07,0,.85.02,1.63.37,2.34.88v.06c-.72-.52-1.5-.88-2.35-.89-.02,0-.04,0-.07,0-1.25,0-2.49.71-3.78,2.18-3.14,3.57-4.68,2.53-6.31,1.43-1.67-1.13-3.4-2.3-7.07,1.43-1.3,1.32-2.52,1.97-3.74,1.97-.06,0-.11,0-.17,0-.92-.04-1.75-.46-2.52-1.06v-.06c.77.61,1.61,1.03,2.53,1.07Z"></path> <path class="cls-1" d="m2.46,10.93c1.26.06,2.53-.58,3.87-1.95,3.68-3.76,5.42-2.58,7.1-1.44,1.61,1.09,3.14,2.12,6.27-1.42,1.3-1.47,2.55-2.19,3.81-2.19.02,0,.05,0,.07,0,.87.02,1.68.39,2.41.93v.06c-.74-.55-1.54-.93-2.42-.94-1.27-.03-2.53.68-3.84,2.17-3.16,3.58-4.7,2.54-6.34,1.43-1.67-1.13-3.39-2.3-7.04,1.43-1.3,1.33-2.52,1.97-3.74,1.97-.06,0-.11,0-.17,0-.89-.04-1.7-.44-2.46-1.01v-.06c.75.58,1.57.98,2.46,1.02Z"></path> <path class="cls-1" d="m2.39,10.98c1.26.06,2.53-.58,3.87-1.96,3.66-3.75,5.39-2.58,7.07-1.44,1.62,1.1,3.15,2.13,6.3-1.42,1.3-1.46,2.55-2.18,3.81-2.18.02,0,.05,0,.07,0,.9.02,1.73.41,2.48.98v.06c-.76-.58-1.58-.98-2.48-1-1.27-.03-2.53.68-3.84,2.16-3.18,3.58-4.73,2.54-6.36,1.43-1.66-1.13-3.38-2.29-7.01,1.43-1.3,1.33-2.52,1.98-3.75,1.98-.05,0-.11,0-.16,0-.87-.04-1.66-.41-2.39-.96v-.06c.74.55,1.53.93,2.39.97Z"></path> <path class="cls-1" d="m2.33,11.04c.05,0,.1,0,.16,0,1.21,0,2.43-.65,3.71-1.97,3.64-3.74,5.37-2.57,7.04-1.44,1.62,1.1,3.16,2.14,6.33-1.42,1.3-1.46,2.54-2.17,3.8-2.17.02,0,.05,0,.08,0,.93.02,1.78.44,2.55,1.04v.06c-.78-.61-1.62-1.03-2.55-1.05-.02,0-.05,0-.07,0-1.25,0-2.48.71-3.77,2.15-3.2,3.59-4.75,2.54-6.39,1.43-1.66-1.12-3.37-2.28-6.98,1.43-1.3,1.34-2.52,1.99-3.75,1.99-.05,0-.11,0-.16,0-.84-.04-1.61-.39-2.32-.91v-.06c.72.52,1.49.88,2.33.92Z"></path> <path class="cls-1" d="m2.26,11.1c.05,0,.1,0,.15,0,1.21,0,2.43-.65,3.72-1.98,3.62-3.74,5.34-2.57,7.02-1.44,1.63,1.1,3.17,2.15,6.36-1.42,1.3-1.45,2.54-2.16,3.8-2.16.03,0,.05,0,.08,0,.96.02,1.83.46,2.62,1.1v.06c-.8-.64-1.67-1.09-2.62-1.11-.03,0-.05,0-.08,0-1.24,0-2.48.7-3.77,2.14-1.46,1.64-2.67,2.42-3.8,2.48-.04,0-.08,0-.12,0-.94,0-1.7-.51-2.49-1.05-1.65-1.12-3.36-2.28-6.95,1.43-1.3,1.34-2.52,1.99-3.75,1.99-.05,0-.1,0-.15,0-.81-.04-1.56-.36-2.26-.85v-.06c.7.5,1.45.83,2.26.87Z"></path> <path class="cls-1" d="m2.19,11.16c1.26.05,2.52-.59,3.86-1.98,3.6-3.73,5.32-2.56,6.99-1.44,1.63,1.11,3.18,2.15,6.39-1.42,1.3-1.45,2.54-2.15,3.8-2.15.03,0,.05,0,.08,0,.98.02,1.88.49,2.69,1.15v.06c-.81-.67-1.71-1.14-2.69-1.17-1.27-.03-2.53.67-3.84,2.13-1.47,1.64-2.69,2.43-3.82,2.48-1.01.04-1.79-.49-2.62-1.05-1.65-1.12-3.36-2.27-6.93,1.43-1.3,1.34-2.53,2-3.75,2-.05,0-.1,0-.15,0-.79-.03-1.51-.34-2.19-.81v-.06c.68.47,1.41.78,2.19.82Z"></path> <path class="cls-1" d="m2.13,11.21s.09,0,.14,0c1.21,0,2.43-.65,3.72-1.99,3.58-3.72,5.3-2.56,6.96-1.44,1.64,1.11,3.19,2.16,6.42-1.42,1.3-1.44,2.54-2.14,3.79-2.14.03,0,.06,0,.08,0,1.01.03,1.93.52,2.76,1.21v.06c-.83-.7-1.75-1.2-2.76-1.23-1.27-.03-2.53.66-3.84,2.13-1.48,1.64-2.7,2.43-3.85,2.48-1.01.04-1.83-.51-2.63-1.05-1.65-1.11-3.35-2.27-6.9,1.43-1.3,1.35-2.53,2.01-3.75,2.01-.05,0-.1,0-.15,0-.76-.03-1.47-.32-2.12-.76v-.06c.66.44,1.36.74,2.13.77Z"></path> <path class="cls-1" d="m2.06,11.27s.09,0,.14,0c1.21,0,2.43-.66,3.72-2,3.56-3.72,5.27-2.56,6.93-1.44,1.64,1.11,3.2,2.16,6.44-1.42,1.3-1.43,2.54-2.13,3.79-2.13.03,0,.06,0,.09,0,1.04.03,1.98.55,2.83,1.27v.06c-.85-.73-1.79-1.26-2.83-1.28-1.27-.03-2.52.66-3.84,2.12-1.49,1.65-2.72,2.44-3.87,2.49-.04,0-.08,0-.11,0-.96,0-1.76-.54-2.53-1.06-1.64-1.11-3.34-2.26-6.87,1.43-1.3,1.35-2.53,2.01-3.75,2.01-.05,0-.09,0-.14,0-.74-.03-1.42-.3-2.06-.72v-.06c.64.42,1.32.69,2.06.72Z"></path> <path class="cls-1" d="m1.99,11.33s.09,0,.14,0c1.22,0,2.44-.66,3.72-2.01,3.54-3.71,5.25-2.55,6.9-1.44,1.65,1.12,3.21,2.17,6.47-1.42,1.33-1.46,2.6-2.16,3.88-2.12,1.07.03,2.03.58,2.9,1.33v.06c-.87-.76-1.83-1.32-2.9-1.35-1.27-.04-2.52.66-3.84,2.11-1.5,1.65-2.73,2.44-3.88,2.49-1.02.05-1.85-.52-2.65-1.06-1.64-1.11-3.33-2.25-6.84,1.43-1.3,1.36-2.53,2.02-3.76,2.02-.05,0-.09,0-.14,0-.71-.03-1.37-.28-1.99-.67v-.06c.62.39,1.28.65,1.99.68Z"></path> <path class="cls-1" d="m1.93,11.39c1.26.05,2.52-.61,3.86-2.01,3.52-3.7,5.22-2.55,6.87-1.44.8.54,1.56,1.05,2.51,1.05.04,0,.08,0,.11,0,1.13-.05,2.4-.86,3.87-2.48,1.33-1.46,2.6-2.15,3.88-2.12,1.09.03,2.08.61,2.97,1.39v.06c-.89-.79-1.87-1.38-2.97-1.41-.03,0-.06,0-.09,0-1.24,0-2.46.69-3.75,2.1-1.5,1.65-2.75,2.44-3.91,2.49-.04,0-.08,0-.11,0-.97,0-1.77-.54-2.54-1.06-1.63-1.1-3.32-2.25-6.81,1.43-1.3,1.36-2.53,2.03-3.76,2.03-.04,0-.09,0-.13,0-.69-.03-1.32-.26-1.92-.63v-.05c.6.37,1.24.61,1.93.63Z"></path> <path class="cls-1" d="m1.86,11.44s.08,0,.13,0c1.22,0,2.44-.66,3.73-2.02,3.5-3.7,5.2-2.55,6.84-1.44.77.52,1.56,1.06,2.53,1.06.04,0,.07,0,.11,0,1.14-.05,2.41-.86,3.89-2.48,1.3-1.42,2.54-2.11,3.78-2.11.03,0,.06,0,.1,0,1.12.03,2.13.64,3.03,1.46v.06c-.91-.82-1.92-1.44-3.04-1.47-.03,0-.06,0-.1,0-1.23,0-2.46.69-3.75,2.09-1.49,1.63-2.78,2.45-3.93,2.49-.04,0-.07,0-.11,0-.98,0-1.78-.54-2.55-1.07-1.63-1.1-3.31-2.24-6.79,1.43-1.3,1.37-2.53,2.04-3.76,2.04-.04,0-.09,0-.13,0-.66-.03-1.28-.24-1.86-.58v-.05c.58.34,1.2.57,1.86.59Z"></path> <path class="cls-1" d="m1.79,11.5c1.26.05,2.52-.62,3.85-2.03,3.48-3.69,5.18-2.54,6.82-1.43.8.54,1.63,1.1,2.64,1.06,1.14-.05,2.42-.86,3.92-2.48,1.3-1.41,2.54-2.1,3.78-2.1.03,0,.07,0,.1,0,1.15.03,2.18.67,3.1,1.52v.06c-.93-.85-1.96-1.5-3.1-1.54-.03,0-.07,0-.1,0-1.23,0-2.46.68-3.75,2.09-1.5,1.63-2.79,2.45-3.95,2.5-.04,0-.07,0-.11,0-.98,0-1.79-.54-2.56-1.07-.78-.53-1.59-1.08-2.6-1.08-.03,0-.07,0-.1,0-1.18.04-2.51.86-4.06,2.51-1.3,1.37-2.53,2.05-3.76,2.04-.04,0-.08,0-.13,0-.63-.02-1.23-.23-1.79-.54v-.05c.56.32,1.16.53,1.79.55Z"></path> <path class="cls-1" d="m1.72,11.56s.08,0,.12,0c1.22,0,2.44-.67,3.73-2.04,3.46-3.68,5.15-2.54,6.79-1.43.8.54,1.63,1.1,2.65,1.06,1.15-.05,2.44-.86,3.94-2.49,1.3-1.41,2.54-2.09,3.78-2.09.03,0,.07,0,.1,0,1.17.04,2.23.71,3.17,1.58v.06c-.94-.89-2-1.56-3.17-1.6-1.26-.04-2.52.64-3.85,2.08-1.51,1.64-2.81,2.45-3.97,2.5-.04,0-.07,0-.11,0-.99,0-1.79-.54-2.57-1.07-.81-.55-1.65-1.11-2.69-1.07-1.18.04-2.5.86-4.04,2.5-1.3,1.38-2.53,2.05-3.76,2.05-.04,0-.08,0-.12,0-.61-.02-1.18-.21-1.72-.51v-.05c.54.3,1.11.49,1.72.51Z"></path> <path class="cls-1" d="m1.66,11.62s.08,0,.12,0c1.22,0,2.45-.67,3.74-2.05,3.44-3.68,5.13-2.54,6.76-1.43.77.52,1.58,1.07,2.55,1.07.04,0,.07,0,.11,0,1.15-.04,2.45-.86,3.96-2.49,1.3-1.4,2.53-2.08,3.77-2.08.04,0,.07,0,.11,0,1.22.04,2.28.73,3.24,1.64v.06c-.96-.92-2.03-1.62-3.24-1.66-.04,0-.07,0-.1,0-1.23,0-2.45.68-3.74,2.07-1.52,1.64-2.82,2.46-3.99,2.5-1.04.04-1.88-.52-2.69-1.07-.78-.53-1.59-1.07-2.58-1.07-.03,0-.07,0-.1,0-1.17.04-2.48.86-4.02,2.5-1.3,1.39-2.53,2.06-3.77,2.06-.04,0-.08,0-.12,0-.58-.02-1.13-.19-1.65-.47v-.05c.52.28,1.07.46,1.66.47Z"></path> <path class="cls-1" d="m1.59,11.68s.07,0,.11,0c1.22,0,2.45-.67,3.74-2.05,3.42-3.67,5.1-2.53,6.73-1.43.8.54,1.64,1.11,2.67,1.07,1.16-.04,2.46-.86,3.98-2.49,1.33-1.44,2.6-2.12,3.88-2.07,1.24.04,2.33.76,3.31,1.71v.06c-.98-.96-2.06-1.69-3.31-1.73-.04,0-.07,0-.11,0-1.23,0-2.45.68-3.74,2.06-1.53,1.64-2.84,2.46-4.01,2.51-.04,0-.07,0-.11,0-1,0-1.81-.55-2.59-1.08-.78-.53-1.58-1.07-2.57-1.07-.03,0-.07,0-.1,0-1.16.04-2.47.86-4,2.5-1.3,1.39-2.53,2.07-3.77,2.07-.04,0-.08,0-.11,0-.56-.02-1.09-.18-1.59-.43v-.05c.5.26,1.03.42,1.59.44Z"></path> <path class="cls-1" d="m1.52,11.73c1.26.04,2.52-.63,3.85-2.06,1.53-1.64,2.84-2.46,4.01-2.51.04,0,.07,0,.11,0,1,0,1.8.55,2.59,1.08.78.53,1.58,1.07,2.57,1.07.03,0,.07,0,.1,0,1.17-.04,2.47-.86,4-2.5,1.34-1.43,2.61-2.11,3.88-2.07,1.27.04,2.38.8,3.37,1.78v.06c-1-.99-2.1-1.76-3.37-1.8-.04,0-.08,0-.11,0-1.22,0-2.45.67-3.74,2.05-1.53,1.64-2.85,2.47-4.03,2.51-1.05.04-1.89-.53-2.7-1.08-.78-.53-1.58-1.07-2.56-1.07-.03,0-.07,0-.1,0-1.16.04-2.46.86-3.98,2.49-1.3,1.4-2.53,2.08-3.77,2.08-.04,0-.07,0-.11,0-.53-.02-1.04-.16-1.52-.39v-.05c.48.24.99.38,1.52.4Z"></path> <path class="cls-1" d="m1.45,11.79s.07,0,.11,0c1.23,0,2.45-.68,3.74-2.07,1.52-1.64,2.82-2.46,3.99-2.5.04,0,.07,0,.11,0,.99,0,1.8.55,2.58,1.07.78.53,1.59,1.07,2.58,1.07.03,0,.07,0,.1,0,1.17-.04,2.48-.86,4.02-2.5,1.3-1.38,2.53-2.06,3.77-2.06.04,0,.08,0,.12,0,1.3.04,2.43.83,3.44,1.85v.06c-1.02-1.02-2.14-1.82-3.44-1.87-.04,0-.08,0-.12,0-1.22,0-2.45.67-3.74,2.05-3.44,3.68-5.13,2.54-6.76,1.43-.78-.52-1.58-1.07-2.55-1.07-.03,0-.07,0-.1,0-1.15.05-2.45.86-3.96,2.49-1.3,1.4-2.53,2.08-3.77,2.08-.04,0-.07,0-.11,0-.51-.02-.99-.15-1.45-.36v-.05c.46.22.94.35,1.45.37Z"></path> <path class="cls-1" d="m1.38,11.85c1.26.04,2.52-.64,3.85-2.08,1.51-1.64,2.81-2.45,3.97-2.5.04,0,.07,0,.11,0,.99,0,1.79.54,2.57,1.07.78.53,1.59,1.08,2.59,1.08.03,0,.07,0,.1,0,1.18-.04,2.5-.86,4.04-2.5,1.3-1.38,2.53-2.05,3.76-2.05.04,0,.08,0,.12,0,1.33.05,2.48.87,3.51,1.92v.06c-1.04-1.06-2.18-1.89-3.51-1.94-.04,0-.08,0-.12,0-1.22,0-2.44.67-3.73,2.04-3.46,3.68-5.15,2.54-6.79,1.43-.77-.52-1.57-1.06-2.54-1.06-.04,0-.07,0-.11,0-1.15.05-2.44.86-3.94,2.49-1.3,1.41-2.53,2.09-3.78,2.09-.03,0-.07,0-.1,0-.48-.01-.94-.14-1.38-.34v-.05c.44.2.9.33,1.38.34Z"></path> <path class="cls-1" d="m1.32,11.91s.07,0,.1,0c1.23,0,2.46-.68,3.75-2.09,1.5-1.63,2.79-2.45,3.95-2.5,1.03-.04,1.86.52,2.67,1.07.81.55,1.65,1.12,2.7,1.08,1.18-.04,2.51-.86,4.06-2.51,1.34-1.42,2.61-2.09,3.89-2.04,1.36.05,2.53.91,3.58,1.99v.06c-1.05-1.09-2.22-1.96-3.58-2.01-1.26-.05-2.52.62-3.85,2.03-3.48,3.69-5.17,2.54-6.81,1.43-.8-.54-1.63-1.1-2.64-1.06-1.14.05-2.42.86-3.92,2.48-1.3,1.41-2.53,2.1-3.78,2.1-.03,0-.07,0-.1,0-.46-.01-.89-.13-1.32-.31v-.05c.42.18.86.3,1.32.31Z"></path> <path class="cls-1" d="m1.25,11.97c1.26.04,2.52-.65,3.85-2.09,1.49-1.63,2.78-2.45,3.92-2.49.04,0,.07,0,.11,0,.98,0,1.78.54,2.55,1.06.81.55,1.65,1.12,2.71,1.08,1.19-.04,2.52-.86,4.08-2.51,1.3-1.37,2.53-2.04,3.76-2.04.04,0,.09,0,.13,0,1.39.05,2.58.95,3.64,2.07v.06c-1.07-1.13-2.26-2.03-3.64-2.08-.04,0-.09,0-.13,0-1.22,0-2.44.66-3.73,2.02-3.5,3.7-5.2,2.55-6.84,1.43-.8-.54-1.62-1.1-2.64-1.06-1.14.05-2.41.86-3.9,2.48-1.3,1.42-2.54,2.11-3.78,2.11-.03,0-.06,0-.1,0-.43-.01-.85-.11-1.25-.28v-.05c.4.16.82.27,1.25.28Z"></path> <path class="cls-1" d="m1.18,12.02s.06,0,.09,0c1.24,0,2.46-.69,3.75-2.1,1.5-1.65,2.75-2.44,3.9-2.49,1.02-.04,1.85.52,2.65,1.06,1.63,1.1,3.32,2.25,6.82-1.43,1.3-1.36,2.53-2.03,3.76-2.03.04,0,.09,0,.13,0,1.41.06,2.62.99,3.71,2.14v.06c-1.09-1.16-2.3-2.1-3.71-2.16-.04,0-.09,0-.13,0-1.22,0-2.44.66-3.73,2.02-3.52,3.7-5.22,2.55-6.87,1.43-.8-.54-1.56-1.05-2.51-1.05-.04,0-.08,0-.11,0-1.13.05-2.4.86-3.87,2.48-1.3,1.42-2.54,2.12-3.78,2.12-.03,0-.06,0-.09,0-.41-.01-.8-.1-1.18-.25v-.05c.38.15.77.24,1.18.25Z"></path> <path class="cls-1" d="m1.11,12.08s.06,0,.09,0c1.24,0,2.47-.69,3.76-2.11,1.5-1.65,2.73-2.44,3.88-2.49.04,0,.08,0,.11,0,.97,0,1.76.54,2.53,1.06,1.64,1.11,3.33,2.25,6.84-1.43,1.3-1.36,2.53-2.02,3.75-2.02.05,0,.09,0,.14,0,1.44.06,2.67,1.03,3.78,2.21v.06c-1.11-1.19-2.34-2.17-3.78-2.23-.04,0-.09,0-.13,0-1.22,0-2.44.66-3.73,2.01-3.54,3.71-5.25,2.55-6.9,1.44-.8-.54-1.56-1.05-2.51-1.05-.04,0-.08,0-.12,0-1.13.05-2.39.86-3.86,2.47-1.3,1.43-2.54,2.12-3.79,2.12-.03,0-.06,0-.09,0-.38-.01-.75-.09-1.11-.22v-.04c.36.13.73.21,1.11.22Z"></path> <path class="cls-1" d="m1.04,12.14s.06,0,.09,0c1.24,0,2.47-.69,3.76-2.12,1.49-1.64,2.72-2.43,3.86-2.48.04,0,.08,0,.11,0,.96,0,1.76.54,2.52,1.06,1.64,1.11,3.34,2.26,6.87-1.43,1.3-1.35,2.53-2.01,3.75-2.01.05,0,.09,0,.14,0,1.47.06,2.72,1.07,3.84,2.29v.06c-1.12-1.23-2.38-2.25-3.85-2.31-.05,0-.09,0-.14,0-1.22,0-2.44.66-3.72,2-3.56,3.72-5.27,2.56-6.93,1.44-1.65-1.11-3.2-2.17-6.45,1.42-1.3,1.43-2.54,2.13-3.79,2.13-.03,0-.06,0-.09,0-.36,0-.71-.08-1.04-.2v-.04c.34.12.68.19,1.04.2Z"></path> <path class="cls-1" d="m.97,12.2s.05,0,.08,0c1.24,0,2.47-.7,3.76-2.13,1.48-1.64,2.7-2.43,3.84-2.48,1.01-.04,1.83.51,2.63,1.05,1.65,1.11,3.35,2.27,6.9-1.43,1.35-1.4,2.62-2.06,3.9-2,1.5.06,2.77,1.11,3.91,2.36v.06c-1.14-1.26-2.42-2.32-3.91-2.38-1.26-.05-2.53.6-3.86,1.99-3.58,3.72-5.29,2.56-6.95,1.44-1.64-1.11-3.19-2.16-6.42,1.42-1.3,1.44-2.54,2.14-3.79,2.14-.03,0-.06,0-.08,0-.33,0-.66-.07-.97-.17v-.04c.32.1.64.17.97.18Z"></path> <path class="cls-1" d="m.91,12.26s.05,0,.08,0c1.24,0,2.48-.7,3.77-2.14,1.47-1.64,2.69-2.43,3.82-2.48,1-.05,1.79.49,2.62,1.05,1.65,1.12,3.36,2.27,6.93-1.43,1.3-1.34,2.52-2,3.75-2,.05,0,.1,0,.15,0,1.53.07,2.82,1.16,3.98,2.44v.06c-1.16-1.29-2.45-2.4-3.98-2.46-.05,0-.1,0-.15,0-1.21,0-2.43.65-3.72,1.99-3.6,3.73-5.32,2.56-6.98,1.44-1.64-1.11-3.18-2.15-6.39,1.42-1.3,1.45-2.54,2.15-3.8,2.15-.03,0-.05,0-.08,0-.31,0-.61-.06-.9-.15v-.04c.29.09.59.15.91.15Z"></path> <path class="cls-1" d="m.84,12.32s.05,0,.08,0c1.25,0,2.48-.7,3.77-2.14,1.46-1.64,2.67-2.42,3.8-2.48,1-.04,1.78.48,2.61,1.05,1.66,1.12,3.37,2.28,6.96-1.43,1.35-1.4,2.63-2.05,3.9-1.99,1.56.07,2.87,1.2,4.04,2.52v.06c-1.18-1.33-2.49-2.47-4.05-2.54-1.26-.06-2.53.59-3.87,1.98-3.61,3.74-5.34,2.57-7.01,1.44-1.63-1.1-3.17-2.15-6.36,1.42-1.3,1.45-2.54,2.16-3.8,2.16-.03,0-.05,0-.08,0-.29,0-.56-.05-.84-.13v-.04c.27.08.55.12.84.13Z"></path> <path class="cls-1" d="m.77,12.38h.07c1.25,0,2.48-.71,3.77-2.15,1.46-1.63,2.66-2.42,3.78-2.47.04,0,.08,0,.12,0,.94,0,1.69.51,2.48,1.05,1.66,1.12,3.38,2.29,6.99-1.43,1.35-1.39,2.63-2.04,3.9-1.98,1.58.07,2.92,1.24,4.11,2.6v.06c-1.19-1.36-2.53-2.54-4.11-2.62-1.26-.06-2.53.59-3.87,1.97-3.63,3.74-5.36,2.57-7.04,1.44-1.63-1.1-3.16-2.14-6.34,1.42-1.3,1.46-2.54,2.17-3.8,2.17-.02,0-.05,0-.07,0-.26,0-.52-.04-.77-.11v-.04c.25.07.51.1.77.11Z"></path> <path class="cls-1" d="m.7,12.44c1.27.03,2.53-.68,3.85-2.16,3.18-3.58,4.72-2.54,6.36-1.43,1.66,1.13,3.39,2.29,7.02-1.43,1.35-1.39,2.63-2.03,3.9-1.97,1.61.08,2.97,1.29,4.18,2.68v.06c-1.21-1.39-2.57-2.62-4.18-2.7-1.26-.06-2.53.58-3.87,1.96-3.65,3.75-5.39,2.57-7.07,1.44-1.62-1.1-3.15-2.13-6.31,1.42-1.3,1.46-2.54,2.18-3.8,2.18-.02,0-.05,0-.07,0-.24,0-.47-.04-.7-.09v-.04c.23.05.46.09.7.09Z"></path> <path class="cls-1" d="m.63,12.49s.05,0,.07,0c1.25,0,2.49-.71,3.78-2.17,3.16-3.58,4.7-2.53,6.33-1.43,1.67,1.13,3.39,2.3,7.05-1.43,1.3-1.33,2.52-1.97,3.74-1.97.05,0,.11,0,.17,0,1.64.08,3.02,1.34,4.24,2.76v.06c-1.23-1.42-2.6-2.7-4.25-2.78-.05,0-.11,0-.16,0-1.21,0-2.42.64-3.71,1.96-3.67,3.75-5.41,2.58-7.09,1.44-1.62-1.09-3.14-2.13-6.28,1.42-1.3,1.47-2.54,2.19-3.81,2.19-.02,0-.05,0-.07,0-.21,0-.42-.04-.63-.08v-.04c.21.04.41.08.63.08Z"></path> <path class="cls-1" d="m.56,12.55s.04,0,.07,0c1.25,0,2.49-.71,3.78-2.18,3.14-3.57,4.67-2.53,6.3-1.43,1.67,1.13,3.4,2.3,7.07-1.43,1.3-1.32,2.52-1.96,3.74-1.96.06,0,.11,0,.17,0,1.67.08,3.07,1.39,4.31,2.84v.06c-1.24-1.46-2.64-2.77-4.31-2.86-.06,0-.11,0-.17,0-1.21,0-2.42.64-3.71,1.95-1.65,1.68-3.06,2.52-4.32,2.55-.03,0-.06,0-.09,0-1.07,0-1.91-.57-2.72-1.12-1.61-1.09-3.13-2.12-6.25,1.42-1.3,1.48-2.55,2.19-3.81,2.19-.02,0-.04,0-.07,0-.19,0-.37-.03-.56-.06v-.04c.18.04.37.06.56.07Z"></path> <path class="cls-1" d="m.49,12.61h.06c1.26,0,2.49-.72,3.79-2.19,3.12-3.56,4.65-2.53,6.27-1.43,1.68,1.14,3.41,2.31,7.1-1.43,1.36-1.38,2.64-2.02,3.91-1.95,1.7.09,3.12,1.44,4.38,2.92v.06c-1.26-1.49-2.68-2.85-4.38-2.94-1.26-.06-2.53.57-3.88,1.94-1.66,1.68-3.08,2.52-4.34,2.56-.03,0-.06,0-.08,0-1.08,0-1.91-.57-2.73-1.12-1.61-1.09-3.12-2.12-6.22,1.42-1.3,1.48-2.55,2.2-3.81,2.2-.02,0-.04,0-.06,0-.17,0-.33-.02-.49-.05v-.04c.16.03.32.05.49.05Z"></path> <path class="cls-1" d="m.42,12.67s.04,0,.06,0c1.26,0,2.5-.72,3.79-2.2,3.1-3.56,4.63-2.52,6.24-1.43,1.68,1.14,3.42,2.32,7.13-1.43,1.3-1.31,2.52-1.95,3.73-1.95.06,0,.12,0,.18,0,1.73.09,3.17,1.49,4.44,3v.06c-1.28-1.52-2.72-2.93-4.45-3.02-.06,0-.12,0-.18,0-1.2,0-2.42.64-3.71,1.94-1.67,1.69-3.09,2.53-4.36,2.56-.03,0-.06,0-.08,0-1.08,0-1.92-.57-2.74-1.12-1.6-1.08-3.11-2.11-6.19,1.42-1.3,1.49-2.55,2.21-3.82,2.21-.02,0-.04,0-.06,0-.14,0-.28-.02-.42-.04v-.04c.14.02.28.03.42.04Z"></path> <path class="cls-1" d="m.35,12.73h.06c1.24,0,2.52-.74,3.8-2.21,3.08-3.55,4.6-2.52,6.22-1.43.83.56,1.69,1.15,2.8,1.12,1.26-.03,2.69-.87,4.35-2.55,1.36-1.37,2.64-2.01,3.92-1.94,1.76.09,3.22,1.54,4.51,3.08v.06c-1.29-1.55-2.75-3.01-4.51-3.1-1.26-.07-2.53.56-3.89,1.93-1.68,1.69-3.11,2.53-4.38,2.56-.03,0-.05,0-.08,0-1.09,0-1.93-.57-2.75-1.12-1.6-1.08-3.1-2.1-6.17,1.42-1.28,1.47-2.57,2.22-3.82,2.22h-.06c-.12,0-.23-.01-.35-.03v-.04c.12.01.23.02.35.03Z"></path> <path class="cls-1" d="m.28,12.79s.04,0,.05,0c1.25,0,2.52-.75,3.8-2.22,3.07-3.54,4.58-2.52,6.19-1.43.81.55,1.65,1.12,2.73,1.12.03,0,.05,0,.08,0,1.27-.03,2.7-.87,4.38-2.55,1.36-1.37,2.64-2,3.92-1.93,1.79.1,3.27,1.59,4.58,3.17v.06c-1.31-1.58-2.79-3.09-4.58-3.19-.06,0-.12,0-.19,0-1.2,0-2.42.63-3.7,1.93-1.69,1.69-3.12,2.53-4.4,2.57-.03,0-.05,0-.08,0-1.09,0-1.94-.57-2.75-1.13-1.59-1.08-3.09-2.1-6.14,1.42-1.28,1.48-2.57,2.23-3.83,2.23h-.06c-.09,0-.19-.01-.28-.02v-.04c.09,0,.18.02.28.02Z"></path> <path class="cls-1" d="m.21,12.85h.05c1.25,0,2.53-.75,3.8-2.23,3.05-3.54,4.56-2.51,6.16-1.43.81.55,1.66,1.12,2.74,1.12.03,0,.05,0,.08,0,1.27-.03,2.71-.87,4.4-2.56,1.3-1.3,2.52-1.93,3.73-1.93.06,0,.13,0,.19,0,1.82.1,3.32,1.64,4.64,3.25v.06c-1.33-1.61-2.83-3.17-4.64-3.27-.06,0-.13,0-.19,0-1.2,0-2.41.63-3.7,1.92-1.69,1.7-3.14,2.54-4.42,2.57-.03,0-.05,0-.08,0-1.1,0-1.94-.57-2.76-1.13-1.59-1.08-3.08-2.09-6.11,1.42-1.28,1.49-2.57,2.24-3.83,2.24h-.05c-.07,0-.14-.01-.21-.02v-.04c.07,0,.14.01.21.02Z"></path> <path class="cls-1" d="m.14,12.91c1.27.02,2.57-.73,3.86-2.24,3.03-3.53,4.54-2.51,6.13-1.43.83.57,1.7,1.15,2.83,1.13,1.28-.03,2.72-.87,4.42-2.56,1.37-1.36,2.65-1.99,3.92-1.92,1.85.1,3.36,1.69,4.71,3.33v.06c-1.35-1.64-2.86-3.25-4.71-3.35-1.26-.07-2.54.55-3.9,1.91-1.7,1.7-3.16,2.54-4.44,2.57-.03,0-.05,0-.08,0-1.1,0-1.95-.58-2.77-1.13-.77-.52-1.5-1.02-2.38-1.02-.04,0-.09,0-.13,0-1.06.06-2.2.83-3.57,2.43-1.28,1.49-2.57,2.25-3.83,2.25h-.05s-.09,0-.14-.01v-.04s.09,0,.14,0Z"></path> <path class="cls-1" d="m.07,12.97h.05c1.25,0,2.54-.76,3.81-2.25,3.01-3.52,4.51-2.5,6.1-1.43.82.56,1.66,1.13,2.76,1.13.02,0,.05,0,.07,0,1.28-.03,2.74-.87,4.44-2.56,1.37-1.36,2.65-1.99,3.93-1.91,1.88.11,3.41,1.75,4.77,3.42v.06c-1.36-1.67-2.9-3.33-4.78-3.44-.07,0-.13,0-.2,0-1.2,0-2.41.63-3.7,1.91-1.71,1.7-3.17,2.54-4.46,2.57-.03,0-.05,0-.08,0-1.11,0-1.96-.58-2.78-1.13-.77-.52-1.49-1.01-2.37-1.01-.04,0-.09,0-.13,0-1.06.06-2.19.83-3.55,2.43-1.28,1.5-2.57,2.26-3.84,2.26-.02,0-.03,0-.05,0-.02,0-.04,0-.06,0v-.04s.04,0,.07,0Z"></path> <path class="cls-1" d="m.04,13.03c1.26,0,2.54-.76,3.81-2.26,2.99-3.52,4.49-2.5,6.07-1.43.82.56,1.67,1.13,2.77,1.13.02,0,.05,0,.07,0,1.29-.03,2.75-.87,4.46-2.57,1.37-1.36,2.65-1.98,3.93-1.91,1.91.11,3.46,1.81,4.84,3.5v.06c-1.38-1.7-2.94-3.41-4.84-3.52-1.26-.07-2.54.55-3.9,1.89-1.72,1.7-3.19,2.55-4.49,2.58-1.15.03-2.02-.56-2.86-1.14-.76-.52-1.49-1.01-2.36-1.01-.04,0-.09,0-.13,0-1.05.06-2.17.83-3.53,2.42-1.28,1.51-2.57,2.27-3.84,2.27-.01,0-.03,0-.04,0v-.04s.03,0,.04,0Z"></path> <path class="cls-1" d="m3.79,10.82c2.97-3.51,4.46-2.5,6.04-1.42.84.57,1.71,1.16,2.85,1.13,1.29-.03,2.76-.87,4.48-2.57,1.37-1.35,2.66-1.97,3.93-1.9,1.94.12,3.51,1.86,4.91,3.59v.06c-1.39-1.73-2.97-3.49-4.91-3.61-1.27-.08-2.54.54-3.91,1.89-1.73,1.71-3.2,2.55-4.51,2.58-.02,0-.05,0-.07,0-1.12,0-1.97-.58-2.8-1.14-.76-.52-1.48-1.01-2.35-1.01-.04,0-.09,0-.13,0-1.05.06-2.16.83-3.51,2.42-1.27,1.5-2.55,2.27-3.81,2.28v-.04c1.25-.01,2.52-.77,3.79-2.27Z"></path> <path class="cls-1" d="m3.72,10.87c1.35-1.6,2.46-2.37,3.52-2.43.94-.05,1.7.46,2.5,1.01.82.56,1.67,1.14,2.79,1.14.02,0,.05,0,.07,0,1.3-.03,2.77-.87,4.5-2.57,1.37-1.35,2.66-1.97,3.94-1.89,1.97.12,3.56,1.92,4.97,3.68v.06c-1.41-1.76-3.01-3.58-4.97-3.7-.07,0-.14,0-.21,0-1.2,0-2.41.62-3.7,1.89-1.74,1.71-3.22,2.56-4.53,2.58-.02,0-.05,0-.07,0-1.12,0-1.98-.58-2.81-1.14-.8-.54-1.55-1.05-2.48-1-1.04.06-2.15.83-3.49,2.42-1.25,1.48-2.51,2.25-3.75,2.29v-.03c1.23-.04,2.48-.8,3.72-2.27Z"></path> <path class="cls-1" d="m3.65,10.92c1.34-1.59,2.45-2.37,3.5-2.43.93-.05,1.69.46,2.49,1,.83.56,1.68,1.14,2.79,1.14h.07c1.31-.03,2.79-.87,4.53-2.58,1.37-1.35,2.66-1.97,3.94-1.89,2,.12,3.61,1.98,5.04,3.76v.06c-1.43-1.79-3.04-3.66-5.04-3.78-1.27-.08-2.55.53-3.91,1.88-1.75,1.71-3.23,2.56-4.55,2.59-.02,0-.05,0-.07,0-1.13,0-1.98-.58-2.81-1.15-.76-.51-1.47-1-2.33-1-.04,0-.09,0-.13,0-1.04.06-2.14.83-3.47,2.42-1.22,1.46-2.46,2.23-3.68,2.29v-.03c1.21-.07,2.43-.83,3.65-2.28Z"></path> <path class="cls-1" d="m3.58,10.97c1.33-1.59,2.44-2.36,3.48-2.42.05,0,.09,0,.14,0,.87,0,1.58.49,2.34,1,.84.57,1.72,1.17,2.87,1.14,1.31-.03,2.8-.87,4.55-2.58,1.3-1.27,2.51-1.89,3.72-1.89.07,0,.15,0,.22,0,2.03.13,3.66,2.04,5.1,3.85v.05c-1.44-1.82-3.08-3.74-5.1-3.87-.07,0-.15,0-.22,0-1.19,0-2.41.62-3.69,1.88-1.75,1.72-3.25,2.56-4.57,2.59-.02,0-.04,0-.07,0-1.13,0-1.99-.58-2.82-1.15-.75-.51-1.47-1-2.33-1-.04,0-.09,0-.14,0-1.03.06-2.13.83-3.45,2.41-1.2,1.43-2.41,2.21-3.61,2.3v-.03c1.19-.09,2.39-.86,3.58-2.29Z"></path> <path class="cls-1" d="m3.51,11.02c1.32-1.59,2.42-2.36,3.46-2.42.05,0,.09,0,.14,0,.86,0,1.58.49,2.33,1,.83.56,1.69,1.15,2.81,1.15.02,0,.04,0,.06,0,1.32-.03,2.81-.87,4.57-2.58,1.3-1.26,2.51-1.88,3.72-1.88.08,0,.15,0,.23,0,2.06.13,3.71,2.1,5.17,3.94v.05c-1.46-1.84-3.11-3.82-5.17-3.96-1.27-.08-2.55.53-3.92,1.86-1.76,1.72-3.26,2.57-4.59,2.59-.02,0-.04,0-.07,0-1.14,0-2-.58-2.83-1.15-.79-.54-1.54-1.05-2.45-.99-1.02.06-2.12.83-3.43,2.41-1.18,1.41-2.36,2.18-3.54,2.3v-.03c1.16-.12,2.34-.89,3.51-2.29Z"></path> <path class="cls-1" d="m3.44,11.07c1.32-1.59,2.41-2.35,3.44-2.42.92-.06,1.67.45,2.46.99.83.57,1.69,1.15,2.82,1.15.02,0,.04,0,.06,0,1.32-.03,2.82-.87,4.59-2.59,1.38-1.34,2.67-1.95,3.95-1.87,2.09.14,3.76,2.16,5.23,4.02v.05c-1.48-1.87-3.15-3.91-5.24-4.04-1.27-.08-2.55.52-3.92,1.86-1.77,1.72-3.28,2.57-4.61,2.6h-.06c-1.14,0-2-.59-2.84-1.15-.79-.54-1.54-1.04-2.44-.99-1.02.06-2.1.83-3.41,2.41-1.15,1.39-2.32,2.16-3.47,2.3v-.03c1.14-.14,2.3-.91,3.44-2.29Z"></path> <path class="cls-1" d="m3.38,11.12c1.31-1.58,2.39-2.35,3.42-2.42.05,0,.09,0,.14,0,.85,0,1.56.48,2.32,1,.83.57,1.69,1.15,2.83,1.15.02,0,.04,0,.06,0,1.33-.02,2.84-.87,4.61-2.59,1.29-1.25,2.51-1.87,3.71-1.87.08,0,.16,0,.24,0,2.12.14,3.81,2.22,5.3,4.11v.05c-1.49-1.9-3.18-3.99-5.3-4.13-1.27-.08-2.55.52-3.93,1.85-1.78,1.72-3.3,2.57-4.63,2.6h-.06c-1.15,0-2.01-.59-2.85-1.16-.75-.51-1.46-.99-2.3-.99-.05,0-.09,0-.14,0-1.01.06-2.09.83-3.39,2.4-1.13,1.37-2.27,2.14-3.4,2.31v-.03c1.12-.17,2.25-.94,3.38-2.29Z"></path> <path class="cls-1" d="m3.31,11.17c1.3-1.58,2.38-2.35,3.4-2.41.05,0,.09,0,.14,0,.85,0,1.56.48,2.31.99.83.57,1.7,1.15,2.84,1.15h.06c1.33-.02,2.85-.87,4.63-2.59,1.3-1.25,2.51-1.86,3.71-1.86.08,0,.16,0,.24,0,2.15.15,3.86,2.28,5.36,4.2v.05c-1.51-1.92-3.22-4.07-5.37-4.22-1.27-.09-2.55.52-3.93,1.84-4.01,3.87-5.9,2.58-7.57,1.44-.75-.51-1.45-.99-2.29-.99-.05,0-.09,0-.14,0-1.01.06-2.08.83-3.37,2.4-1.1,1.34-2.22,2.12-3.33,2.3v-.03c1.1-.19,2.21-.96,3.31-2.29Z"></path> <path class="cls-1" d="m3.24,11.22c1.29-1.58,2.36-2.34,3.37-2.41.05,0,.1,0,.14,0,.84,0,1.55.48,2.3.99.85.58,1.73,1.18,2.91,1.16,1.34-.02,2.86-.87,4.65-2.6,1.3-1.25,2.51-1.86,3.71-1.86.08,0,.16,0,.25,0,2.18.15,3.91,2.35,5.43,4.29v.05s-.01-.02-.02-.02c-1.52-1.94-3.24-4.13-5.41-4.29-.08,0-.16,0-.24,0-1.19,0-2.4.61-3.69,1.85-4.03,3.88-5.93,2.58-7.6,1.44-.74-.51-1.45-.99-2.28-.99-.05,0-.09,0-.14,0-1,.06-2.07.83-3.35,2.4-1.08,1.32-2.17,2.09-3.26,2.3v-.03c1.08-.21,2.16-.98,3.24-2.29Z"></path> <path class="cls-1" d="m3.17,11.27c1.28-1.58,2.35-2.34,3.36-2.41.05,0,.1,0,.14,0,.84,0,1.54.48,2.29.99.84.57,1.7,1.16,2.86,1.16.02,0,.04,0,.06,0,1.35-.02,2.88-.87,4.68-2.6,1.39-1.33,2.68-1.93,3.96-1.84,2.19.16,3.92,2.36,5.44,4.31.02.02.03.04.05.06v.05s-.05-.06-.08-.1c-1.52-1.94-3.25-4.15-5.42-4.3-.08,0-.17,0-.25,0-1.19,0-2.4.6-3.69,1.84-4.05,3.88-5.95,2.59-7.63,1.44-.74-.5-1.44-.98-2.27-.98-.05,0-.09,0-.14,0-1,.07-2.06.83-3.33,2.39-1.06,1.3-2.13,2.07-3.19,2.3v-.03c1.06-.23,2.12-1,3.17-2.29Z"></path> <path class="cls-1" d="m3.1,11.32c1.27-1.57,2.34-2.34,3.34-2.4.9-.06,1.64.45,2.42.98,1.67,1.14,3.57,2.43,7.62-1.44,1.39-1.33,2.69-1.93,3.96-1.84,2.19.16,3.92,2.37,5.45,4.33.04.05.07.09.11.14v.05c-.04-.06-.09-.11-.13-.17-1.53-1.95-3.25-4.16-5.43-4.32-1.27-.09-2.56.51-3.94,1.83-4.07,3.89-5.97,2.59-7.66,1.44-1.58-1.08-2.94-2-5.72,1.42-1.03,1.27-2.08,2.04-3.12,2.29v-.03c1.04-.25,2.07-1.02,3.1-2.28Z"></path> <path class="cls-1" d="m3.03,11.37c1.27-1.57,2.32-2.33,3.32-2.4.05,0,.1,0,.14,0,.83,0,1.53.48,2.27.98,1.68,1.14,3.58,2.44,7.64-1.44,1.3-1.24,2.51-1.84,3.71-1.84.09,0,.17,0,.26,0,2.19.16,3.93,2.38,5.46,4.35.06.07.11.14.16.21v.05c-.06-.08-.13-.16-.19-.24-1.53-1.96-3.26-4.17-5.44-4.33-1.27-.09-2.56.5-3.95,1.82-4.09,3.9-6,2.59-7.68,1.44-1.57-1.07-2.93-2-5.69,1.42-1.01,1.25-2.03,2.01-3.06,2.28v-.03c1.01-.27,2.03-1.03,3.03-2.27Z"></path> <path class="cls-1" d="m2.96,11.42c1.26-1.57,2.31-2.33,3.3-2.39.05,0,.1,0,.14,0,.82,0,1.52.48,2.26.98,1.68,1.15,3.58,2.44,7.67-1.44,1.39-1.32,2.69-1.92,3.97-1.82,2.2.16,3.94,2.39,5.47,4.36.07.1.15.19.22.28v.05c-.08-.1-.16-.21-.25-.31-1.53-1.96-3.26-4.19-5.45-4.35-1.27-.1-2.56.5-3.95,1.81-4.11,3.9-6.02,2.6-7.71,1.44-1.57-1.07-2.92-1.99-5.66,1.41-.99,1.23-1.99,1.99-2.99,2.28v-.03c.99-.29,1.98-1.04,2.96-2.26Z"></path> <path class="cls-1" d="m2.89,11.47c1.25-1.56,2.29-2.32,3.28-2.39.88-.06,1.62.44,2.4.97,1.68,1.15,3.59,2.45,7.7-1.44,1.39-1.32,2.69-1.92,3.98-1.82,2.2.17,3.94,2.4,5.48,4.38.09.12.19.24.28.36v.05c-.1-.13-.2-.26-.3-.39-1.53-1.97-3.27-4.2-5.46-4.37-1.27-.09-2.57.5-3.95,1.81-4.13,3.91-6.05,2.6-7.74,1.44-1.56-1.07-2.91-1.99-5.63,1.41-.96,1.2-1.94,1.96-2.92,2.27v-.03c.97-.3,1.94-1.06,2.89-2.25Z"></path> <path class="cls-1" d="m2.83,11.52c1.24-1.56,2.28-2.32,3.26-2.39.88-.06,1.61.44,2.39.97,1.69,1.15,3.6,2.46,7.73-1.44,1.4-1.32,2.7-1.91,3.98-1.81,2.2.17,3.95,2.41,5.49,4.4.11.14.22.29.33.43v.05c-.12-.15-.24-.3-.36-.46-1.54-1.98-3.27-4.22-5.46-4.38-1.27-.1-2.57.49-3.96,1.8-4.15,3.92-6.07,2.6-7.77,1.44-1.56-1.06-2.9-1.98-5.6,1.41-.94,1.18-1.89,1.93-2.85,2.25v-.03c.95-.32,1.89-1.07,2.83-2.24Z"></path> <path class="cls-1" d="m2.76,11.57c2.7-3.41,4.05-2.49,5.62-1.42,1.69,1.16,3.61,2.46,7.76-1.44,1.4-1.31,2.7-1.91,3.98-1.8,2.21.17,3.95,2.42,5.49,4.41.13.17.26.34.39.5v.05c-.14-.18-.28-.35-.41-.53-1.54-1.98-3.28-4.23-5.47-4.4-1.27-.1-2.57.49-3.96,1.8-4.17,3.92-6.1,2.61-7.8,1.45-1.55-1.06-2.89-1.97-5.58,1.41-.92,1.16-1.85,1.9-2.78,2.24v-.03c.92-.34,1.85-1.08,2.76-2.23Z"></path> <path class="cls-1" d="m2.69,11.62c2.68-3.4,4.03-2.48,5.59-1.42,1.7,1.16,3.62,2.47,7.79-1.44,1.3-1.22,2.51-1.81,3.7-1.81.09,0,.19,0,.28.01,2.21.18,3.96,2.44,5.5,4.43.15.19.3.38.45.57v.05c-.16-.2-.31-.4-.47-.6-1.54-1.99-3.29-4.24-5.48-4.42-1.28-.1-2.57.48-3.96,1.79-4.19,3.93-6.12,2.61-7.83,1.45-1.54-1.06-2.88-1.97-5.55,1.41-.89,1.13-1.8,1.88-2.71,2.22v-.03c.9-.35,1.8-1.09,2.69-2.21Z"></path> <path class="cls-1" d="m2.62,11.67c2.67-3.4,4.01-2.48,5.56-1.42,1.7,1.16,3.62,2.48,7.82-1.44,1.3-1.21,2.51-1.81,3.7-1.81.1,0,.19,0,.29.01,2.21.18,3.97,2.45,5.51,4.45.17.22.34.44.5.65v.05c-.17-.22-.35-.45-.53-.68-1.54-2-3.29-4.26-5.49-4.44-1.28-.1-2.57.48-3.97,1.79-1.88,1.75-3.47,2.62-4.87,2.63-.01,0-.03,0-.04,0-1.21,0-2.09-.6-2.94-1.19-1.54-1.05-2.87-1.96-5.52,1.41-.87,1.11-1.75,1.85-2.64,2.21v-.03c.88-.36,1.76-1.09,2.62-2.19Z"></path> <path class="cls-1" d="m2.55,11.72c2.65-3.39,3.98-2.48,5.53-1.42,1.7,1.17,3.63,2.48,7.85-1.44,1.4-1.31,2.71-1.89,4-1.79,2.22.18,3.97,2.46,5.52,4.46.19.24.37.48.56.72v.04c-.19-.24-.39-.49-.58-.75-1.54-2-3.3-4.27-5.5-4.45-.1,0-.19-.01-.29-.01-1.18,0-2.39.59-3.68,1.79-1.88,1.76-3.48,2.62-4.89,2.64-.01,0-.03,0-.04,0-1.21,0-2.09-.61-2.95-1.19-1.53-1.05-2.86-1.96-5.49,1.41-.85,1.08-1.71,1.81-2.57,2.19v-.03c.86-.37,1.71-1.1,2.55-2.17Z"></path> <path class="cls-1" d="m2.48,11.77c2.63-3.38,3.96-2.47,5.5-1.42.85.58,1.74,1.19,2.94,1.19h.04c1.4-.01,3-.88,4.89-2.63,1.3-1.21,2.51-1.79,3.7-1.79.1,0,.2,0,.3.01,2.22.18,3.98,2.47,5.53,4.48.21.27.41.53.62.79v.05c-.21-.27-.42-.54-.64-.82-1.55-2.01-3.3-4.29-5.51-4.47-.1,0-.2-.01-.3-.01-1.18,0-2.39.59-3.68,1.79-1.89,1.76-3.5,2.62-4.91,2.64-.01,0-.03,0-.04,0-1.22,0-2.1-.61-2.96-1.19-1.53-1.05-2.85-1.95-5.46,1.41-.82,1.06-1.66,1.78-2.5,2.17v-.03c.83-.38,1.67-1.1,2.48-2.15Z"></path> <path class="cls-1" d="m2.41,11.82c2.61-3.38,3.94-2.47,5.47-1.42.86.58,1.74,1.19,2.95,1.19h.04c1.41-.01,3.02-.88,4.91-2.63,1.3-1.2,2.51-1.79,3.7-1.79.1,0,.2,0,.3.01,1,.08,1.98.59,3.01,1.55.91.84,1.73,1.91,2.53,2.95.23.29.45.58.67.86v.04c-.23-.29-.46-.59-.69-.89-1.55-2.02-3.31-4.3-5.52-4.49-.1,0-.2-.01-.3-.01-1.18,0-2.39.59-3.68,1.78-1.9,1.76-3.52,2.63-4.93,2.64-.01,0-.02,0-.04,0-1.22,0-2.15-.64-2.97-1.2-.76-.52-1.48-1.01-2.32-.95-.94.07-1.93.82-3.12,2.36-.8,1.03-1.61,1.75-2.43,2.15v-.03c.81-.39,1.62-1.11,2.41-2.13Z"></path> <path class="cls-1" d="m2.34,11.87c2.59-3.37,3.91-2.47,5.44-1.42.86.59,1.74,1.19,2.96,1.19h.04c1.41-.01,3.03-.88,4.94-2.64,1.41-1.3,2.72-1.88,4.01-1.77,1,.09,1.98.59,3.02,1.56.91.85,1.73,1.92,2.53,2.96.25.32.49.63.73.94v.04c-.25-.31-.5-.64-.75-.96-1.55-2.02-3.31-4.31-5.53-4.5-1.28-.11-2.58.47-3.99,1.76-1.91,1.77-3.53,2.63-4.95,2.65h-.03c-1.23,0-2.16-.64-2.98-1.2-.76-.52-1.47-1.01-2.31-.94-.93.07-1.91.82-3.1,2.36-.78,1.01-1.57,1.72-2.37,2.12v-.03c.79-.4,1.57-1.1,2.34-2.1Z"></path> <path class="cls-1" d="m2.28,11.92c2.58-3.36,3.89-2.46,5.42-1.42.82.56,1.75,1.2,2.97,1.2h.03c1.42-.01,3.04-.88,4.96-2.64,1.3-1.2,2.51-1.78,3.7-1.78.1,0,.21,0,.31.01,1,.09,1.99.6,3.02,1.56.91.85,1.74,1.93,2.54,2.97.26.34.52.68.78,1.01v.04c-.27-.33-.53-.68-.8-1.04-1.55-2.03-3.32-4.33-5.54-4.52-.1,0-.21-.01-.31-.01-1.18,0-2.39.58-3.68,1.77-1.92,1.77-3.55,2.63-4.98,2.65h-.03c-1.23,0-2.16-.64-2.98-1.2-.71-.49-1.38-.95-2.15-.95-.05,0-.1,0-.15,0-.93.07-1.9.82-3.08,2.35-.75.98-1.52,1.68-2.3,2.09v-.03c.77-.41,1.53-1.1,2.28-2.08Z"></path> <path class="cls-1" d="m2.21,11.97c1.17-1.54,2.15-2.29,3.08-2.36.05,0,.1,0,.15,0,.77,0,1.45.46,2.16.95.82.56,1.75,1.2,2.98,1.2h.03c1.43-.01,3.06-.88,4.98-2.64,1.41-1.3,2.73-1.87,4.01-1.76,1,.09,1.99.6,3.03,1.57.91.85,1.74,1.93,2.54,2.98.28.37.56.73.84,1.08v.04c-.29-.36-.57-.73-.86-1.11-.8-1.04-1.63-2.13-2.54-2.98-1.03-.96-2.02-1.47-3.01-1.56-1.28-.11-2.59.46-3.99,1.75-1.93,1.77-3.56,2.64-5,2.65h-.03c-1.24,0-2.17-.64-2.99-1.21-.75-.52-1.47-1-2.29-.94-.92.07-1.89.82-3.06,2.35-.73.96-1.48,1.65-2.23,2.07v-.03c.74-.42,1.48-1.1,2.21-2.05Z"></path> <path class="cls-1" d="m2.14,12.02c1.16-1.53,2.14-2.28,3.06-2.36.83-.07,1.55.42,2.3.94.82.56,1.75,1.2,2.99,1.2h.03c1.43-.01,3.07-.88,5-2.65,1.42-1.3,2.73-1.87,4.02-1.75,1,.09,1.99.6,3.03,1.58.91.86,1.74,1.94,2.54,2.99.3.39.6.78.89,1.15v.04c-.3-.38-.61-.77-.92-1.18-.8-1.05-1.63-2.13-2.54-2.99-1.03-.97-2.02-1.48-3.01-1.57-1.28-.11-2.59.46-4,1.75-1.94,1.78-3.58,2.64-5.02,2.66h-.03c-1.24,0-2.18-.64-3-1.21-.75-.52-1.46-1-2.28-.94-.91.07-1.88.82-3.04,2.35-.71.93-1.43,1.61-2.16,2.04v-.03c.72-.42,1.44-1.1,2.14-2.02Z"></path> <path class="cls-1" d="m2.07,12.07c1.16-1.53,2.12-2.28,3.04-2.35.83-.07,1.54.42,2.29.94.82.57,1.75,1.21,3,1.21h.03c1.44,0,3.08-.88,5.02-2.65,1.3-1.18,2.51-1.76,3.7-1.76.11,0,.22,0,.33.01,1,.09,2,.61,3.04,1.58.91.86,1.74,1.95,2.55,3,.32.42.64.83.95,1.22v.04c-.32-.4-.64-.82-.97-1.25-.8-1.05-1.63-2.14-2.54-3-1.04-.97-2.02-1.49-3.02-1.58-1.28-.11-2.59.45-4,1.74-1.95,1.78-3.6,2.65-5.04,2.66h-.03c-1.25,0-2.18-.64-3.01-1.21-.75-.51-1.45-1-2.27-.93-.91.07-1.87.82-3.02,2.34-.69.91-1.38,1.58-2.09,2v-.03c.7-.43,1.39-1.09,2.07-1.99Z"></path> <path class="cls-1" d="m2,12.12c1.15-1.53,2.11-2.28,3.02-2.35.05,0,.1,0,.16,0,.76,0,1.42.46,2.13.94.82.57,1.76,1.21,3,1.21h.02c1.44,0,3.09-.88,5.05-2.65,1.42-1.29,2.74-1.86,4.03-1.74,1.01.09,2,.61,3.04,1.59.92.86,1.75,1.96,2.55,3.01.34.45.67.88,1.01,1.29v.04c-.34-.42-.68-.87-1.03-1.32-.8-1.06-1.63-2.15-2.55-3.01-1.04-.97-2.02-1.49-3.02-1.58-1.29-.12-2.59.45-4.01,1.74-1.96,1.78-3.61,2.65-5.06,2.66h-.02c-1.25,0-2.19-.64-3.02-1.21-.7-.48-1.36-.94-2.11-.94-.05,0-.1,0-.15,0-.9.08-1.86.82-3,2.34-.66.88-1.34,1.54-2.02,1.97v-.03c.67-.43,1.34-1.08,2-1.96Z"></path> <path class="cls-1" d="m1.93,12.17c1.14-1.53,2.09-2.27,3-2.35.05,0,.1,0,.16,0,.75,0,1.42.46,2.12.94.83.57,1.76,1.21,3.01,1.21h.02c1.45,0,3.11-.88,5.07-2.66,1.42-1.29,2.74-1.86,4.03-1.74,1.01.09,2,.62,3.04,1.6.92.86,1.75,1.96,2.56,3.02.36.47.71.93,1.06,1.37v.04c-.36-.44-.72-.91-1.08-1.39-.81-1.06-1.64-2.16-2.55-3.02-1.04-.98-2.03-1.5-3.03-1.59-1.29-.12-2.6.45-4.01,1.73-1.97,1.78-3.63,2.66-5.08,2.66h-.02c-1.26,0-2.2-.65-3.03-1.22-.74-.51-1.45-1-2.26-.93-.9.08-1.85.82-2.98,2.34-.64.86-1.29,1.5-1.95,1.93v-.03c.65-.43,1.3-1.07,1.93-1.92Z"></path> </g> </g> </g> </g> </svg> 